<svg id="Layer_1" data-name="Layer 1" xmlns="http://www.w3.org/2000/svg" xmlns:xlink="http://www.w3.org/1999/xlink" viewBox="0 0 1000 1000"><defs><style>.cls-1,.cls-10,.cls-100,.cls-101,.cls-102,.cls-103,.cls-104,.cls-105,.cls-106,.cls-107,.cls-108,.cls-11,.cls-12,.cls-13,.cls-14,.cls-15,.cls-16,.cls-17,.cls-18,.cls-19,.cls-2,.cls-20,.cls-21,.cls-22,.cls-23,.cls-24,.cls-25,.cls-26,.cls-27,.cls-3,.cls-30,.cls-31,.cls-32,.cls-33,.cls-34,.cls-35,.cls-36,.cls-37,.cls-38,.cls-39,.cls-4,.cls-40,.cls-41,.cls-42,.cls-43,.cls-44,.cls-45,.cls-46,.cls-47,.cls-48,.cls-49,.cls-5,.cls-50,.cls-51,.cls-52,.cls-53,.cls-54,.cls-55,.cls-56,.cls-57,.cls-58,.cls-59,.cls-6,.cls-62,.cls-63,.cls-64,.cls-65,.cls-66,.cls-67,.cls-68,.cls-69,.cls-7,.cls-70,.cls-71,.cls-72,.cls-73,.cls-74,.cls-75,.cls-76,.cls-77,.cls-78,.cls-79,.cls-8,.cls-80,.cls-81,.cls-82,.cls-83,.cls-84,.cls-85,.cls-86,.cls-87,.cls-88,.cls-89,.cls-9,.cls-90,.cls-91,.cls-92,.cls-93,.cls-94,.cls-95,.cls-96,.cls-97,.cls-98,.cls-99{stroke-miterlimit:10;}.cls-1,.cls-2{stroke-width:3px;}.cls-1{fill:url(#linear-gradient);stroke:url(#New_Gradient_Swatch_3);}.cls-2{fill:url(#linear-gradient-2);stroke:url(#New_Gradient_Swatch_3-2);}.cls-10,.cls-11,.cls-12,.cls-13,.cls-14,.cls-15,.cls-16,.cls-17,.cls-18,.cls-19,.cls-20,.cls-21,.cls-22,.cls-23,.cls-24,.cls-25,.cls-3,.cls-35,.cls-36,.cls-37,.cls-38,.cls-39,.cls-4,.cls-40,.cls-41,.cls-42,.cls-43,.cls-44,.cls-45,.cls-46,.cls-47,.cls-48,.cls-49,.cls-5,.cls-50,.cls-51,.cls-52,.cls-53,.cls-54,.cls-55,.cls-56,.cls-57,.cls-6,.cls-7,.cls-8,.cls-9{stroke:#b2813a;}.cls-3{fill:url(#New_Gradient_Swatch_3-3);}.cls-4{fill:url(#New_Gradient_Swatch_3-4);}.cls-5{fill:url(#New_Gradient_Swatch_3-5);}.cls-6{fill:url(#New_Gradient_Swatch_3-6);}.cls-7{fill:url(#New_Gradient_Swatch_3-7);}.cls-8{fill:url(#New_Gradient_Swatch_3-8);}.cls-9{fill:url(#New_Gradient_Swatch_3-9);}.cls-10{fill:url(#New_Gradient_Swatch_3-10);}.cls-11{fill:url(#New_Gradient_Swatch_3-11);}.cls-12{fill:url(#New_Gradient_Swatch_3-12);}.cls-13{fill:url(#New_Gradient_Swatch_3-13);}.cls-14{fill:url(#New_Gradient_Swatch_3-14);}.cls-15{fill:url(#New_Gradient_Swatch_3-15);}.cls-16{fill:url(#New_Gradient_Swatch_3-16);}.cls-17{fill:url(#New_Gradient_Swatch_3-17);}.cls-18{fill:url(#New_Gradient_Swatch_3-18);}.cls-19{fill:url(#New_Gradient_Swatch_3-19);}.cls-20{fill:url(#New_Gradient_Swatch_3-20);}.cls-21{fill:url(#New_Gradient_Swatch_3-21);}.cls-22{fill:url(#New_Gradient_Swatch_3-22);}.cls-23{fill:url(#New_Gradient_Swatch_3-23);}.cls-24{fill:url(#New_Gradient_Swatch_3-24);}.cls-25{fill:url(#New_Gradient_Swatch_3-25);}.cls-26,.cls-58{stroke-width:4px;}.cls-26{fill:url(#New_Gradient_Swatch_3-26);stroke:url(#linear-gradient-3);}.cls-27{fill:url(#New_Gradient_Swatch_3-27);stroke:url(#linear-gradient-4);}.cls-28{fill:url(#New_Gradient_Swatch_1);}.cls-29{fill:url(#linear-gradient-5);}.cls-30{fill:url(#linear-gradient-6);stroke:url(#linear-gradient-7);}.cls-31,.cls-32,.cls-33,.cls-34,.cls-63,.cls-64,.cls-65,.cls-66{stroke-width:0.75px;}.cls-31{fill:url(#linear-gradient-8);stroke:url(#New_Gradient_Swatch_3-28);}.cls-32{fill:url(#linear-gradient-9);stroke:url(#New_Gradient_Swatch_3-29);}.cls-33{fill:url(#linear-gradient-10);stroke:url(#New_Gradient_Swatch_3-30);}.cls-34{fill:url(#linear-gradient-11);stroke:url(#New_Gradient_Swatch_3-31);}.cls-35{fill:url(#New_Gradient_Swatch_3-32);}.cls-36{fill:url(#New_Gradient_Swatch_3-33);}.cls-37{fill:url(#New_Gradient_Swatch_3-34);}.cls-38{fill:url(#New_Gradient_Swatch_3-35);}.cls-39{fill:url(#New_Gradient_Swatch_3-36);}.cls-40{fill:url(#New_Gradient_Swatch_3-37);}.cls-41{fill:url(#New_Gradient_Swatch_3-38);}.cls-42{fill:url(#New_Gradient_Swatch_3-39);}.cls-43{fill:url(#New_Gradient_Swatch_3-40);}.cls-44{fill:url(#New_Gradient_Swatch_3-41);}.cls-45{fill:url(#New_Gradient_Swatch_3-42);}.cls-46{fill:url(#New_Gradient_Swatch_3-43);}.cls-47{fill:url(#New_Gradient_Swatch_3-44);}.cls-48{fill:url(#New_Gradient_Swatch_3-45);}.cls-49{fill:url(#New_Gradient_Swatch_3-46);}.cls-50{fill:url(#New_Gradient_Swatch_3-47);}.cls-51{fill:url(#New_Gradient_Swatch_3-48);}.cls-52{fill:url(#New_Gradient_Swatch_3-49);}.cls-53{fill:url(#New_Gradient_Swatch_3-50);}.cls-54{fill:url(#New_Gradient_Swatch_3-51);}.cls-55{fill:url(#New_Gradient_Swatch_3-52);}.cls-56{fill:url(#New_Gradient_Swatch_3-53);}.cls-57{fill:url(#New_Gradient_Swatch_3-54);}.cls-58{fill:url(#New_Gradient_Swatch_3-55);stroke:url(#linear-gradient-12);}.cls-59{fill:url(#New_Gradient_Swatch_3-56);stroke:url(#linear-gradient-13);}.cls-60{fill:url(#New_Gradient_Swatch_1-2);}.cls-61{fill:url(#linear-gradient-14);}.cls-62{fill:url(#linear-gradient-15);stroke:url(#linear-gradient-16);}.cls-63{fill:url(#linear-gradient-17);stroke:url(#New_Gradient_Swatch_3-57);}.cls-64{fill:url(#linear-gradient-18);stroke:url(#New_Gradient_Swatch_3-58);}.cls-65{fill:url(#linear-gradient-19);stroke:url(#New_Gradient_Swatch_3-59);}.cls-66{fill:url(#linear-gradient-20);stroke:url(#New_Gradient_Swatch_3-60);}.cls-67{fill:url(#linear-gradient-21);stroke:url(#linear-gradient-22);}.cls-68{fill:url(#linear-gradient-23);stroke:url(#linear-gradient-24);}.cls-69{fill:url(#linear-gradient-25);stroke:url(#linear-gradient-26);}.cls-70{fill:url(#linear-gradient-27);stroke:url(#linear-gradient-28);}.cls-71{fill:url(#linear-gradient-29);stroke:url(#linear-gradient-30);}.cls-72{fill:url(#linear-gradient-31);stroke:url(#linear-gradient-32);}.cls-73{fill:url(#linear-gradient-33);stroke:url(#linear-gradient-34);}.cls-74{fill:url(#linear-gradient-35);stroke:url(#linear-gradient-36);}.cls-75{fill:url(#linear-gradient-37);stroke:url(#linear-gradient-38);}.cls-76{fill:url(#linear-gradient-39);stroke:url(#linear-gradient-40);}.cls-77{fill:url(#linear-gradient-41);stroke:url(#linear-gradient-42);}.cls-78{fill:url(#linear-gradient-43);stroke:url(#linear-gradient-44);}.cls-79{fill:url(#linear-gradient-45);stroke:url(#linear-gradient-46);}.cls-80{fill:url(#linear-gradient-47);stroke:url(#linear-gradient-48);}.cls-81{fill:url(#linear-gradient-49);stroke:url(#linear-gradient-50);}.cls-82{fill:url(#linear-gradient-51);stroke:url(#linear-gradient-52);}.cls-100,.cls-101,.cls-102,.cls-103,.cls-104,.cls-105,.cls-106,.cls-107,.cls-108,.cls-83,.cls-84,.cls-85,.cls-86,.cls-87,.cls-88,.cls-89,.cls-90,.cls-91,.cls-92,.cls-93,.cls-94,.cls-95,.cls-96,.cls-97,.cls-98,.cls-99{stroke-width:0.25px;}.cls-83{fill:url(#linear-gradient-53);stroke:url(#New_Gradient_Swatch_3-61);}.cls-84{fill:url(#linear-gradient-54);stroke:url(#New_Gradient_Swatch_3-62);}.cls-85{fill:url(#linear-gradient-55);stroke:url(#New_Gradient_Swatch_3-63);}.cls-86{fill:url(#linear-gradient-56);stroke:url(#New_Gradient_Swatch_3-64);}.cls-87{fill:url(#linear-gradient-57);stroke:url(#New_Gradient_Swatch_3-65);}.cls-88{fill:url(#linear-gradient-58);stroke:url(#New_Gradient_Swatch_3-66);}.cls-89{fill:url(#linear-gradient-59);stroke:url(#New_Gradient_Swatch_3-67);}.cls-90{fill:url(#linear-gradient-60);stroke:url(#New_Gradient_Swatch_3-68);}.cls-91{fill:url(#linear-gradient-61);stroke:url(#New_Gradient_Swatch_3-69);}.cls-92{fill:url(#linear-gradient-62);stroke:url(#New_Gradient_Swatch_3-70);}.cls-93{fill:url(#linear-gradient-63);stroke:url(#New_Gradient_Swatch_3-71);}.cls-94{fill:url(#linear-gradient-64);stroke:url(#New_Gradient_Swatch_3-72);}.cls-95{fill:url(#linear-gradient-65);stroke:url(#New_Gradient_Swatch_3-73);}.cls-96{fill:url(#linear-gradient-66);stroke:url(#New_Gradient_Swatch_3-74);}.cls-97{fill:url(#linear-gradient-67);stroke:url(#New_Gradient_Swatch_3-75);}.cls-98{fill:url(#linear-gradient-68);stroke:url(#New_Gradient_Swatch_3-76);}.cls-99{fill:url(#linear-gradient-69);stroke:url(#New_Gradient_Swatch_3-77);}.cls-100{fill:url(#linear-gradient-70);stroke:url(#New_Gradient_Swatch_3-78);}.cls-101{fill:url(#linear-gradient-71);stroke:url(#New_Gradient_Swatch_3-79);}.cls-102{fill:url(#linear-gradient-72);stroke:url(#New_Gradient_Swatch_3-80);}.cls-103{fill:url(#linear-gradient-73);stroke:url(#New_Gradient_Swatch_3-81);}.cls-104{fill:url(#linear-gradient-74);stroke:url(#New_Gradient_Swatch_3-82);}.cls-105{fill:url(#linear-gradient-75);stroke:url(#New_Gradient_Swatch_3-83);}.cls-106{fill:url(#linear-gradient-76);stroke:url(#New_Gradient_Swatch_3-84);}.cls-107{fill:url(#linear-gradient-77);stroke:url(#New_Gradient_Swatch_3-85);}.cls-108{fill:url(#linear-gradient-78);stroke:url(#New_Gradient_Swatch_3-86);}</style><linearGradient id="linear-gradient" x1="275.35" y1="112.55" x2="630.44" y2="879.99" gradientUnits="userSpaceOnUse"><stop offset="0" stop-color="#854e23"/><stop offset="0.11" stop-color="#854e23"/><stop offset="0.42" stop-color="#e6b963"/><stop offset="0.79" stop-color="#b2813b"/><stop offset="0.89" stop-color="#854e23"/><stop offset="0.95" stop-color="#4f3018"/><stop offset="1" stop-color="#291b10"/></linearGradient><linearGradient id="New_Gradient_Swatch_3" x1="396.99" y1="455.19" x2="492.39" y2="455.19" gradientUnits="userSpaceOnUse"><stop offset="0" stop-color="#9f6a36"/><stop offset="0.35" stop-color="#f8e888"/><stop offset="0.72" stop-color="#e8b965"/><stop offset="0.79" stop-color="#ce9d54"/><stop offset="0.87" stop-color="#b48144"/><stop offset="0.95" stop-color="#a5703a"/><stop offset="1" stop-color="#9f6a36"/></linearGradient><linearGradient id="linear-gradient-2" x1="456.71" y1="192.6" x2="694.38" y2="845.49" gradientUnits="userSpaceOnUse"><stop offset="0" stop-color="#291b10"/><stop offset="0.05" stop-color="#4f3018"/><stop offset="0.11" stop-color="#854e23"/><stop offset="0.21" stop-color="#b2813b"/><stop offset="0.58" stop-color="#e6b963"/><stop offset="0.89" stop-color="#854e23"/><stop offset="1" stop-color="#854e23"/></linearGradient><linearGradient id="New_Gradient_Swatch_3-2" x1="497.53" y1="461.87" x2="593.01" y2="461.87" xlink:href="#New_Gradient_Swatch_3"/><linearGradient id="New_Gradient_Swatch_3-3" x1="828.19" y1="354.36" x2="614.44" y2="690.26" xlink:href="#New_Gradient_Swatch_3"/><linearGradient id="New_Gradient_Swatch_3-4" x1="845.63" y1="365.45" x2="631.87" y2="701.35" xlink:href="#New_Gradient_Swatch_3"/><linearGradient id="New_Gradient_Swatch_3-5" x1="838.84" y1="360.59" x2="625.08" y2="696.49" xlink:href="#New_Gradient_Swatch_3"/><linearGradient id="New_Gradient_Swatch_3-6" x1="856.88" y1="372.08" x2="643.13" y2="707.98" xlink:href="#New_Gradient_Swatch_3"/><linearGradient id="New_Gradient_Swatch_3-7" x1="841.1" y1="366.12" x2="627.34" y2="702.02" xlink:href="#New_Gradient_Swatch_3"/><linearGradient id="New_Gradient_Swatch_3-8" x1="859.72" y1="377.97" x2="645.96" y2="713.87" xlink:href="#New_Gradient_Swatch_3"/><linearGradient id="New_Gradient_Swatch_3-9" x1="837.1" y1="365.17" x2="623.35" y2="701.08" xlink:href="#New_Gradient_Swatch_3"/><linearGradient id="New_Gradient_Swatch_3-10" x1="855.31" y1="376.76" x2="641.55" y2="712.66" xlink:href="#New_Gradient_Swatch_3"/><linearGradient id="New_Gradient_Swatch_3-11" x1="827.73" y1="359.18" x2="613.98" y2="695.08" xlink:href="#New_Gradient_Swatch_3"/><linearGradient id="New_Gradient_Swatch_3-12" x1="845.07" y1="370.21" x2="631.32" y2="706.11" xlink:href="#New_Gradient_Swatch_3"/><linearGradient id="New_Gradient_Swatch_3-13" x1="812.45" y1="348.27" x2="598.7" y2="684.17" xlink:href="#New_Gradient_Swatch_3"/><linearGradient id="New_Gradient_Swatch_3-14" x1="828.72" y1="358.62" x2="614.96" y2="694.52" xlink:href="#New_Gradient_Swatch_3"/><linearGradient id="New_Gradient_Swatch_3-15" x1="796.07" y1="333.38" x2="582.32" y2="669.28" xlink:href="#New_Gradient_Swatch_3"/><linearGradient id="New_Gradient_Swatch_3-16" x1="811.59" y1="343.25" x2="597.83" y2="679.15" xlink:href="#New_Gradient_Swatch_3"/><linearGradient id="New_Gradient_Swatch_3-17" x1="776.45" y1="328.35" x2="562.7" y2="664.25" xlink:href="#New_Gradient_Swatch_3"/><linearGradient id="New_Gradient_Swatch_3-18" x1="789.45" y1="336.62" x2="575.69" y2="672.52" xlink:href="#New_Gradient_Swatch_3"/><linearGradient id="New_Gradient_Swatch_3-19" x1="746.2" y1="306.08" x2="532.45" y2="641.98" gradientTransform="matrix(1, -0.09, 0.09, 1, -26.89, 69.61)" xlink:href="#New_Gradient_Swatch_3"/><linearGradient id="New_Gradient_Swatch_3-20" x1="759.36" y1="314.45" x2="545.6" y2="650.35" gradientTransform="matrix(1, -0.09, 0.09, 1, -26.89, 69.61)" xlink:href="#New_Gradient_Swatch_3"/><linearGradient id="New_Gradient_Swatch_3-21" x1="721.7" y1="287.7" x2="507.94" y2="623.6" xlink:href="#New_Gradient_Swatch_3"/><linearGradient id="New_Gradient_Swatch_3-22" x1="730.62" y1="293.37" x2="516.86" y2="629.27" xlink:href="#New_Gradient_Swatch_3"/><linearGradient id="New_Gradient_Swatch_3-23" x1="688.35" y1="264.02" x2="474.6" y2="599.92" xlink:href="#New_Gradient_Swatch_3"/><linearGradient id="New_Gradient_Swatch_3-24" x1="696.83" y1="269.41" x2="483.07" y2="605.32" xlink:href="#New_Gradient_Swatch_3"/><linearGradient id="New_Gradient_Swatch_3-25" x1="663.3" y1="248.89" x2="449.55" y2="584.79" xlink:href="#New_Gradient_Swatch_3"/><linearGradient id="New_Gradient_Swatch_3-26" x1="749.44" y1="267.85" x2="477.32" y2="695.46" xlink:href="#New_Gradient_Swatch_3"/><linearGradient id="linear-gradient-3" x1="618.23" y1="457.83" x2="638.84" y2="457.83" gradientUnits="userSpaceOnUse"><stop offset="0" stop-color="#9f6a36"/><stop offset="0.47" stop-color="#e8b965"/><stop offset="0.6" stop-color="#ce9d54"/><stop offset="0.76" stop-color="#b48144"/><stop offset="0.9" stop-color="#a5703a"/><stop offset="1" stop-color="#9f6a36"/></linearGradient><linearGradient id="New_Gradient_Swatch_3-27" x1="765.48" y1="421.72" x2="917.08" y2="421.72" xlink:href="#New_Gradient_Swatch_3"/><linearGradient id="linear-gradient-4" x1="764.98" y1="420.97" x2="918.47" y2="420.97" gradientUnits="userSpaceOnUse"><stop offset="0" stop-color="#9f6a36"/><stop offset="0.09" stop-color="#a56f3b"/><stop offset="0.21" stop-color="#b67f49"/><stop offset="0.35" stop-color="#d29860"/><stop offset="0.47" stop-color="#f1b579"/><stop offset="1" stop-color="#9f6a36"/></linearGradient><linearGradient id="New_Gradient_Swatch_1" x1="765.37" y1="393.61" x2="839.48" y2="393.61" gradientUnits="userSpaceOnUse"><stop offset="0" stop-color="#2e191b"/><stop offset="0.19" stop-color="#5f3724"/><stop offset="0.3" stop-color="#7c4829"/><stop offset="0.44" stop-color="#764428"/><stop offset="0.62" stop-color="#653a25"/><stop offset="0.83" stop-color="#492920"/><stop offset="1" stop-color="#2e191b"/></linearGradient><linearGradient id="linear-gradient-5" x1="764.37" y1="382.49" x2="840.48" y2="382.49" gradientUnits="userSpaceOnUse"><stop offset="0" stop-color="#e6b963"/><stop offset="0.07" stop-color="#9f6a36"/><stop offset="0.14" stop-color="#c29b56"/><stop offset="0.25" stop-color="#f8e888"/><stop offset="0.49" stop-color="#f8e888"/><stop offset="0.73" stop-color="#f8e888"/><stop offset="0.75" stop-color="#f6e284"/><stop offset="0.78" stop-color="#f0d177"/><stop offset="0.81" stop-color="#e8b965"/><stop offset="0.87" stop-color="#9f6a36"/><stop offset="0.9" stop-color="#c29b56"/><stop offset="0.94" stop-color="#f8e888"/><stop offset="1" stop-color="#291b10"/></linearGradient><linearGradient id="linear-gradient-6" x1="626.17" y1="453.5" x2="839.64" y2="453.5" gradientUnits="userSpaceOnUse"><stop offset="0" stop-color="#291b10"/><stop offset="0.06" stop-color="#e8b965"/><stop offset="0.08" stop-color="#cc9b53"/><stop offset="0.12" stop-color="#9f6a36"/><stop offset="0.75" stop-color="#f8e888"/><stop offset="0.86" stop-color="#c29b56"/><stop offset="0.93" stop-color="#9f6a36"/><stop offset="1" stop-color="#e6b963"/></linearGradient><linearGradient id="linear-gradient-7" x1="625.67" y1="451.87" x2="840.14" y2="451.87" gradientUnits="userSpaceOnUse"><stop offset="0" stop-color="#9f6a36"/><stop offset="0.35" stop-color="#f8e888"/></linearGradient><linearGradient id="linear-gradient-8" x1="572.58" y1="361.27" x2="891.65" y2="678.87" gradientUnits="userSpaceOnUse"><stop offset="0.35" stop-color="#3c2415"/><stop offset="1" stop-color="#603913"/></linearGradient><linearGradient id="New_Gradient_Swatch_3-28" x1="657.65" y1="457.68" x2="688.95" y2="457.68" xlink:href="#New_Gradient_Swatch_3"/><linearGradient id="linear-gradient-9" x1="594.09" y1="339.67" x2="913.15" y2="657.27" xlink:href="#linear-gradient-8"/><linearGradient id="New_Gradient_Swatch_3-29" x1="697.59" y1="458.27" x2="728.89" y2="458.27" xlink:href="#New_Gradient_Swatch_3"/><linearGradient id="linear-gradient-10" x1="612.34" y1="321.34" x2="931.4" y2="638.93" xlink:href="#linear-gradient-8"/><linearGradient id="New_Gradient_Swatch_3-30" x1="737.53" y1="457.68" x2="768.82" y2="457.68" xlink:href="#New_Gradient_Swatch_3"/><linearGradient id="linear-gradient-11" x1="636.08" y1="297.49" x2="955.15" y2="615.08" xlink:href="#linear-gradient-8"/><linearGradient id="New_Gradient_Swatch_3-31" x1="781.41" y1="457.68" x2="802.75" y2="457.68" xlink:href="#New_Gradient_Swatch_3"/><linearGradient id="New_Gradient_Swatch_3-32" x1="520.82" y1="354.36" x2="307.06" y2="690.26" gradientTransform="matrix(-1, 0, 0, 1, 692.63, 0)" xlink:href="#New_Gradient_Swatch_3"/><linearGradient id="New_Gradient_Swatch_3-33" x1="538.25" y1="365.45" x2="324.5" y2="701.35" gradientTransform="matrix(-1, 0, 0, 1, 692.63, 0)" xlink:href="#New_Gradient_Swatch_3"/><linearGradient id="New_Gradient_Swatch_3-34" x1="531.46" y1="360.59" x2="317.71" y2="696.49" gradientTransform="matrix(-1, 0, 0, 1, 692.63, 0)" xlink:href="#New_Gradient_Swatch_3"/><linearGradient id="New_Gradient_Swatch_3-35" x1="549.51" y1="372.08" x2="335.75" y2="707.98" gradientTransform="matrix(-1, 0, 0, 1, 692.63, 0)" xlink:href="#New_Gradient_Swatch_3"/><linearGradient id="New_Gradient_Swatch_3-36" x1="533.72" y1="366.12" x2="319.97" y2="702.02" gradientTransform="matrix(-1, 0, 0, 1, 692.63, 0)" xlink:href="#New_Gradient_Swatch_3"/><linearGradient id="New_Gradient_Swatch_3-37" x1="552.34" y1="377.97" x2="338.59" y2="713.87" gradientTransform="matrix(-1, 0, 0, 1, 692.63, 0)" xlink:href="#New_Gradient_Swatch_3"/><linearGradient id="New_Gradient_Swatch_3-38" x1="529.73" y1="365.17" x2="315.97" y2="701.08" gradientTransform="matrix(-1, 0, 0, 1, 692.63, 0)" xlink:href="#New_Gradient_Swatch_3"/><linearGradient id="New_Gradient_Swatch_3-39" x1="547.94" y1="376.76" x2="334.18" y2="712.66" gradientTransform="matrix(-1, 0, 0, 1, 692.63, 0)" xlink:href="#New_Gradient_Swatch_3"/><linearGradient id="New_Gradient_Swatch_3-40" x1="520.36" y1="359.18" x2="306.6" y2="695.08" gradientTransform="matrix(-1, 0, 0, 1, 692.63, 0)" xlink:href="#New_Gradient_Swatch_3"/><linearGradient id="New_Gradient_Swatch_3-41" x1="537.7" y1="370.21" x2="323.94" y2="706.11" gradientTransform="matrix(-1, 0, 0, 1, 692.63, 0)" xlink:href="#New_Gradient_Swatch_3"/><linearGradient id="New_Gradient_Swatch_3-42" x1="505.08" y1="348.27" x2="291.32" y2="684.17" gradientTransform="matrix(-1, 0, 0, 1, 692.63, 0)" xlink:href="#New_Gradient_Swatch_3"/><linearGradient id="New_Gradient_Swatch_3-43" x1="521.34" y1="358.62" x2="307.59" y2="694.52" gradientTransform="matrix(-1, 0, 0, 1, 692.63, 0)" xlink:href="#New_Gradient_Swatch_3"/><linearGradient id="New_Gradient_Swatch_3-44" x1="488.7" y1="333.38" x2="274.94" y2="669.28" gradientTransform="matrix(-1, 0, 0, 1, 692.63, 0)" xlink:href="#New_Gradient_Swatch_3"/><linearGradient id="New_Gradient_Swatch_3-45" x1="504.21" y1="343.25" x2="290.46" y2="679.15" gradientTransform="matrix(-1, 0, 0, 1, 692.63, 0)" xlink:href="#New_Gradient_Swatch_3"/><linearGradient id="New_Gradient_Swatch_3-46" x1="469.08" y1="328.35" x2="255.32" y2="664.25" gradientTransform="matrix(-1, 0, 0, 1, 692.63, 0)" xlink:href="#New_Gradient_Swatch_3"/><linearGradient id="New_Gradient_Swatch_3-47" x1="482.07" y1="336.62" x2="268.32" y2="672.52" gradientTransform="matrix(-1, 0, 0, 1, 692.63, 0)" xlink:href="#New_Gradient_Swatch_3"/><linearGradient id="New_Gradient_Swatch_3-48" x1="440.11" y1="278.01" x2="226.36" y2="613.91" gradientTransform="matrix(-1, -0.09, -0.09, 1, 719.51, 69.61)" xlink:href="#New_Gradient_Swatch_3"/><linearGradient id="New_Gradient_Swatch_3-49" x1="453.27" y1="286.38" x2="239.51" y2="622.28" gradientTransform="matrix(-1, -0.09, -0.09, 1, 719.51, 69.61)" xlink:href="#New_Gradient_Swatch_3"/><linearGradient id="New_Gradient_Swatch_3-50" x1="414.33" y1="287.7" x2="200.57" y2="623.6" gradientTransform="matrix(-1, 0, 0, 1, 692.63, 0)" xlink:href="#New_Gradient_Swatch_3"/><linearGradient id="New_Gradient_Swatch_3-51" x1="423.24" y1="293.37" x2="209.49" y2="629.27" gradientTransform="matrix(-1, 0, 0, 1, 692.63, 0)" xlink:href="#New_Gradient_Swatch_3"/><linearGradient id="New_Gradient_Swatch_3-52" x1="380.98" y1="264.02" x2="167.22" y2="599.92" gradientTransform="matrix(-1, 0, 0, 1, 692.63, 0)" xlink:href="#New_Gradient_Swatch_3"/><linearGradient id="New_Gradient_Swatch_3-53" x1="389.45" y1="269.41" x2="175.69" y2="605.32" gradientTransform="matrix(-1, 0, 0, 1, 692.63, 0)" xlink:href="#New_Gradient_Swatch_3"/><linearGradient id="New_Gradient_Swatch_3-54" x1="355.93" y1="248.89" x2="142.17" y2="584.79" gradientTransform="matrix(-1, 0, 0, 1, 692.63, 0)" xlink:href="#New_Gradient_Swatch_3"/><linearGradient id="New_Gradient_Swatch_3-55" x1="442.06" y1="267.85" x2="169.94" y2="695.46" gradientTransform="matrix(1, 0, 0, -1, 50.3, 915.67)" xlink:href="#New_Gradient_Swatch_3"/><linearGradient id="linear-gradient-12" x1="310.86" y1="457.83" x2="331.47" y2="457.83" gradientTransform="matrix(1, 0, 0, -1, 50.3, 915.67)" xlink:href="#linear-gradient-3"/><linearGradient id="New_Gradient_Swatch_3-56" x1="458.11" y1="421.72" x2="609.71" y2="421.72" gradientTransform="matrix(-1, 0, 0, 1, 692.63, 0)" xlink:href="#New_Gradient_Swatch_3"/><linearGradient id="linear-gradient-13" x1="457.6" y1="420.97" x2="611.09" y2="420.97" gradientTransform="matrix(-1, 0, 0, 1, 692.63, 0)" xlink:href="#linear-gradient-4"/><linearGradient id="New_Gradient_Swatch_1-2" x1="458" y1="393.61" x2="532.11" y2="393.61" gradientTransform="matrix(-1, 0, 0, 1, 692.63, 0)" xlink:href="#New_Gradient_Swatch_1"/><linearGradient id="linear-gradient-14" x1="235.63" y1="382.49" x2="159.52" y2="382.49" xlink:href="#linear-gradient-5"/><linearGradient id="linear-gradient-15" x1="318.8" y1="453.5" x2="532.26" y2="453.5" gradientTransform="matrix(-1, 0, 0, 1, 692.63, 0)" xlink:href="#linear-gradient-6"/><linearGradient id="linear-gradient-16" x1="318.3" y1="451.87" x2="532.76" y2="451.87" gradientTransform="matrix(-1, 0, 0, 1, 692.63, 0)" xlink:href="#linear-gradient-7"/><linearGradient id="linear-gradient-17" x1="187.58" y1="454.51" x2="207.55" y2="454.51" xlink:href="#linear-gradient-8"/><linearGradient id="New_Gradient_Swatch_3-57" x1="187.21" y1="454.48" x2="207.92" y2="454.48" xlink:href="#New_Gradient_Swatch_3"/><linearGradient id="linear-gradient-18" x1="223.21" y1="455.04" x2="252.83" y2="455.04" xlink:href="#linear-gradient-8"/><linearGradient id="New_Gradient_Swatch_3-58" x1="222.84" y1="455.04" x2="253.21" y2="455.04" xlink:href="#New_Gradient_Swatch_3"/><linearGradient id="linear-gradient-19" x1="262.3" y1="455.04" x2="291.92" y2="455.04" xlink:href="#linear-gradient-8"/><linearGradient id="New_Gradient_Swatch_3-59" x1="261.93" y1="455.04" x2="292.29" y2="455.04" xlink:href="#New_Gradient_Swatch_3"/><linearGradient id="linear-gradient-20" x1="301.39" y1="455.04" x2="331.01" y2="455.04" xlink:href="#linear-gradient-8"/><linearGradient id="New_Gradient_Swatch_3-60" x1="301.02" y1="455.04" x2="331.38" y2="455.04" xlink:href="#New_Gradient_Swatch_3"/><linearGradient id="linear-gradient-21" x1="263.73" y1="630.01" x2="690.38" y2="887.71" gradientUnits="userSpaceOnUse"><stop offset="0" stop-color="#9f6a36"/><stop offset="0.48" stop-color="#9b6f2a"/><stop offset="1" stop-color="#9f6a36"/></linearGradient><linearGradient id="linear-gradient-22" x1="339.48" y1="712.19" x2="484.36" y2="712.19" xlink:href="#linear-gradient-7"/><linearGradient id="linear-gradient-23" x1="284.09" y1="596.3" x2="710.75" y2="854" xlink:href="#linear-gradient-21"/><linearGradient id="linear-gradient-24" x1="466.15" y1="718.18" x2="504.95" y2="718.18" xlink:href="#linear-gradient-7"/><linearGradient id="linear-gradient-25" x1="292.84" y1="581.81" x2="719.49" y2="839.52" xlink:href="#linear-gradient-21"/><linearGradient id="linear-gradient-26" x1="497.17" y1="717.99" x2="550.43" y2="717.99" xlink:href="#linear-gradient-7"/><linearGradient id="linear-gradient-27" x1="304.91" y1="561.82" x2="731.57" y2="819.53" xlink:href="#linear-gradient-21"/><linearGradient id="linear-gradient-28" x1="536.13" y1="711.86" x2="584.31" y2="711.86" xlink:href="#linear-gradient-7"/><linearGradient id="linear-gradient-29" x1="313.56" y1="547.51" x2="740.21" y2="805.21" xlink:href="#linear-gradient-21"/><linearGradient id="linear-gradient-30" x1="572.23" y1="715.51" x2="617.67" y2="715.51" xlink:href="#linear-gradient-7"/><linearGradient id="linear-gradient-31" x1="215.63" y1="271.76" x2="775.4" y2="309.07" xlink:href="#linear-gradient-21"/><linearGradient id="linear-gradient-32" x1="233.3" y1="274.38" x2="278.81" y2="274.38" xlink:href="#linear-gradient-7"/><linearGradient id="linear-gradient-33" x1="218.38" y1="230.5" x2="778.15" y2="267.82" xlink:href="#linear-gradient-21"/><linearGradient id="linear-gradient-34" x1="268.15" y1="235.59" x2="321.52" y2="235.59" xlink:href="#linear-gradient-7"/><linearGradient id="linear-gradient-35" x1="220.26" y1="202.39" x2="780.02" y2="239.71" xlink:href="#linear-gradient-21"/><linearGradient id="linear-gradient-36" x1="314.29" y1="209.66" x2="363.17" y2="209.66" xlink:href="#linear-gradient-7"/><linearGradient id="linear-gradient-37" x1="222.43" y1="169.78" x2="782.2" y2="207.1" xlink:href="#linear-gradient-21"/><linearGradient id="linear-gradient-38" x1="363.18" y1="180.7" x2="409.49" y2="180.7" xlink:href="#linear-gradient-7"/><linearGradient id="linear-gradient-39" x1="223.61" y1="152.06" x2="783.38" y2="189.38" xlink:href="#linear-gradient-21"/><linearGradient id="linear-gradient-40" x1="419.19" y1="166.23" x2="460.79" y2="166.23" xlink:href="#linear-gradient-7"/><linearGradient id="linear-gradient-41" x1="224.31" y1="141.51" x2="784.08" y2="178.83" xlink:href="#linear-gradient-21"/><linearGradient id="linear-gradient-42" x1="480.74" y1="159.33" x2="518.47" y2="159.33" xlink:href="#linear-gradient-7"/><linearGradient id="linear-gradient-43" x1="224.21" y1="143.13" x2="783.97" y2="180.45" xlink:href="#linear-gradient-21"/><linearGradient id="linear-gradient-44" x1="531.91" y1="166.04" x2="576.33" y2="166.04" xlink:href="#linear-gradient-7"/><linearGradient id="linear-gradient-45" x1="223.69" y1="150.82" x2="783.46" y2="188.14" xlink:href="#linear-gradient-21"/><linearGradient id="linear-gradient-46" x1="597.31" y1="176.08" x2="632.93" y2="176.08" xlink:href="#linear-gradient-7"/><linearGradient id="linear-gradient-47" x1="222.57" y1="167.74" x2="782.33" y2="205.06" xlink:href="#linear-gradient-21"/><linearGradient id="linear-gradient-48" x1="634.56" y1="196.14" x2="662.73" y2="196.14" xlink:href="#linear-gradient-7"/><linearGradient id="linear-gradient-49" x1="221.05" y1="190.53" x2="780.81" y2="227.85" xlink:href="#linear-gradient-21"/><linearGradient id="linear-gradient-50" x1="660.87" y1="221.73" x2="717.34" y2="221.73" xlink:href="#linear-gradient-7"/><linearGradient id="linear-gradient-51" x1="218.36" y1="230.8" x2="778.13" y2="268.12" xlink:href="#linear-gradient-21"/><linearGradient id="linear-gradient-52" x1="713.6" y1="265.42" x2="760.04" y2="265.42" xlink:href="#linear-gradient-7"/><linearGradient id="linear-gradient-53" x1="120.92" y1="864.72" x2="893.67" y2="1037.24" gradientUnits="userSpaceOnUse"><stop offset="0" stop-color="#291b10"/><stop offset="0.05" stop-color="#4f3018"/><stop offset="0.11" stop-color="#854e23"/><stop offset="0.58" stop-color="#e6b963"/><stop offset="0.89" stop-color="#854e23"/><stop offset="1" stop-color="#854e23"/></linearGradient><linearGradient id="New_Gradient_Swatch_3-61" x1="68.72" y1="856.94" x2="103.5" y2="856.94" xlink:href="#New_Gradient_Swatch_3"/><linearGradient id="linear-gradient-54" x1="122.73" y1="856.61" x2="895.48" y2="1029.13" xlink:href="#linear-gradient-53"/><linearGradient id="New_Gradient_Swatch_3-62" x1="107.6" y1="856.94" x2="138.88" y2="856.94" xlink:href="#New_Gradient_Swatch_3"/><linearGradient id="linear-gradient-55" x1="124.34" y1="849.41" x2="897.09" y2="1021.92" xlink:href="#linear-gradient-53"/><linearGradient id="New_Gradient_Swatch_3-63" x1="144.77" y1="856.94" x2="172.1" y2="856.94" xlink:href="#New_Gradient_Swatch_3"/><linearGradient id="linear-gradient-56" x1="125.62" y1="843.65" x2="898.38" y2="1016.16" xlink:href="#linear-gradient-53"/><linearGradient id="New_Gradient_Swatch_3-64" x1="174.27" y1="856.94" x2="210.35" y2="856.94" xlink:href="#New_Gradient_Swatch_3"/><linearGradient id="linear-gradient-57" x1="127.66" y1="834.51" x2="900.42" y2="1007.02" xlink:href="#linear-gradient-53"/><linearGradient id="New_Gradient_Swatch_3-65" x1="213.93" y1="856.94" x2="242.42" y2="856.94" xlink:href="#New_Gradient_Swatch_3"/><linearGradient id="linear-gradient-58" x1="129.5" y1="826.28" x2="902.25" y2="998.8" xlink:href="#linear-gradient-53"/><linearGradient id="New_Gradient_Swatch_3-66" x1="263.78" y1="857.09" x2="289.09" y2="857.09" xlink:href="#New_Gradient_Swatch_3"/><linearGradient id="linear-gradient-59" x1="130.95" y1="819.77" x2="903.71" y2="992.29" xlink:href="#linear-gradient-53"/><linearGradient id="New_Gradient_Swatch_3-67" x1="293.74" y1="856.94" x2="301.18" y2="856.94" xlink:href="#New_Gradient_Swatch_3"/><linearGradient id="linear-gradient-60" x1="132.03" y1="814.95" x2="904.78" y2="987.46" xlink:href="#linear-gradient-53"/><linearGradient id="New_Gradient_Swatch_3-68" x1="307.83" y1="856.94" x2="332.48" y2="856.94" xlink:href="#New_Gradient_Swatch_3"/><linearGradient id="linear-gradient-61" x1="133.52" y1="808.28" x2="906.27" y2="980.8" xlink:href="#linear-gradient-53"/><linearGradient id="New_Gradient_Swatch_3-69" x1="338.16" y1="856.94" x2="365.48" y2="856.94" xlink:href="#New_Gradient_Swatch_3"/><linearGradient id="linear-gradient-62" x1="135.07" y1="801.35" x2="907.82" y2="973.86" xlink:href="#linear-gradient-53"/><linearGradient id="New_Gradient_Swatch_3-70" x1="369.49" y1="856.96" x2="398.7" y2="856.96" xlink:href="#New_Gradient_Swatch_3"/><linearGradient id="linear-gradient-63" x1="136.46" y1="795.1" x2="909.21" y2="967.62" xlink:href="#linear-gradient-53"/><linearGradient id="New_Gradient_Swatch_3-71" x1="404.5" y1="856.94" x2="432.01" y2="856.94" xlink:href="#New_Gradient_Swatch_3"/><linearGradient id="linear-gradient-64" x1="137.78" y1="789.2" x2="910.53" y2="961.72" xlink:href="#linear-gradient-53"/><linearGradient id="New_Gradient_Swatch_3-72" x1="430.3" y1="856.94" x2="466.38" y2="856.94" xlink:href="#New_Gradient_Swatch_3"/><linearGradient id="linear-gradient-65" x1="139.87" y1="779.84" x2="912.62" y2="952.36" xlink:href="#linear-gradient-53"/><linearGradient id="New_Gradient_Swatch_3-73" x1="468.62" y1="856.94" x2="499.91" y2="856.94" xlink:href="#New_Gradient_Swatch_3"/><linearGradient id="linear-gradient-66" x1="141.48" y1="772.63" x2="914.23" y2="945.15" xlink:href="#linear-gradient-53"/><linearGradient id="New_Gradient_Swatch_3-74" x1="505.8" y1="856.94" x2="533.13" y2="856.94" xlink:href="#New_Gradient_Swatch_3"/><linearGradient id="linear-gradient-67" x1="143.02" y1="765.7" x2="915.78" y2="938.21" xlink:href="#linear-gradient-53"/><linearGradient id="New_Gradient_Swatch_3-75" x1="537.14" y1="856.96" x2="566.34" y2="856.96" xlink:href="#New_Gradient_Swatch_3"/><linearGradient id="linear-gradient-68" x1="144.82" y1="757.68" x2="917.57" y2="930.19" xlink:href="#linear-gradient-53"/><linearGradient id="New_Gradient_Swatch_3-76" x1="585.74" y1="856.94" x2="593.17" y2="856.94" xlink:href="#New_Gradient_Swatch_3"/><linearGradient id="linear-gradient-69" x1="145.99" y1="752.44" x2="918.74" y2="924.95" xlink:href="#linear-gradient-53"/><linearGradient id="New_Gradient_Swatch_3-77" x1="599.85" y1="856.94" x2="628.34" y2="856.94" xlink:href="#New_Gradient_Swatch_3"/><linearGradient id="linear-gradient-70" x1="147.42" y1="746.02" x2="920.17" y2="918.54" xlink:href="#linear-gradient-53"/><linearGradient id="New_Gradient_Swatch_3-78" x1="635.66" y1="856.94" x2="665.75" y2="856.94" xlink:href="#New_Gradient_Swatch_3"/><linearGradient id="linear-gradient-71" x1="148.88" y1="739.47" x2="921.63" y2="911.98" xlink:href="#linear-gradient-53"/><linearGradient id="New_Gradient_Swatch_3-79" x1="671.38" y1="856.94" x2="678.82" y2="856.94" xlink:href="#New_Gradient_Swatch_3"/><linearGradient id="linear-gradient-72" x1="149.71" y1="735.73" x2="922.47" y2="908.25" xlink:href="#linear-gradient-53"/><linearGradient id="New_Gradient_Swatch_3-80" x1="681.74" y1="856.94" x2="717.83" y2="856.94" xlink:href="#New_Gradient_Swatch_3"/><linearGradient id="linear-gradient-73" x1="152.07" y1="725.18" x2="924.82" y2="897.7" xlink:href="#linear-gradient-53"/><linearGradient id="New_Gradient_Swatch_3-81" x1="733.3" y1="856.94" x2="760.82" y2="856.94" xlink:href="#New_Gradient_Swatch_3"/><linearGradient id="linear-gradient-74" x1="154.14" y1="715.91" x2="926.89" y2="888.42" xlink:href="#linear-gradient-53"/><linearGradient id="New_Gradient_Swatch_3-82" x1="762.78" y1="856.94" x2="796.28" y2="856.94" xlink:href="#New_Gradient_Swatch_3"/><linearGradient id="linear-gradient-75" x1="155.6" y1="709.37" x2="928.35" y2="881.88" xlink:href="#linear-gradient-53"/><linearGradient id="New_Gradient_Swatch_3-83" x1="797.09" y1="856.94" x2="825.63" y2="856.94" xlink:href="#New_Gradient_Swatch_3"/><linearGradient id="linear-gradient-76" x1="157.05" y1="702.89" x2="929.8" y2="875.41" xlink:href="#linear-gradient-53"/><linearGradient id="New_Gradient_Swatch_3-84" x1="844.03" y1="857.09" x2="869.34" y2="857.09" xlink:href="#New_Gradient_Swatch_3"/><linearGradient id="linear-gradient-77" x1="158.97" y1="694.3" x2="931.72" y2="866.81" xlink:href="#linear-gradient-53"/><linearGradient id="New_Gradient_Swatch_3-85" x1="867.97" y1="856.94" x2="896.51" y2="856.94" xlink:href="#New_Gradient_Swatch_3"/><linearGradient id="linear-gradient-78" x1="160.01" y1="689.63" x2="932.76" y2="862.14" xlink:href="#linear-gradient-53"/><linearGradient id="New_Gradient_Swatch_3-86" x1="900.87" y1="856.94" x2="930.97" y2="856.94" xlink:href="#New_Gradient_Swatch_3"/></defs><path class="cls-1" d="M398.49,560.5q0-56.26,30-96.4t30.23-68.16V331.18q0-28.23-13.87-28.24h-.23q-14,0-14,28.24V387H398.49V331.18q0-87.69,46.14-87.69t46.26,87.69v66.25q0,57.33-30.12,97.67-30.12,40.14-30.11,70.5v42h60.23v59.24h-92.4Z"/><path class="cls-2" d="M559.35,467.71q0-30.57-13.75-30.57-14.22,1.07-14.32,35.46H499.11l11.48-222.31h80.92v59.24H537.07l-4.54,89.6q8.29-17.2,26.25-17.2,16.82,0,25.57,25.27,7.17,18.26,7.16,60.51V586q0,87.48-46.25,87.48T499.11,586V536.72h32.17V586q0,28.24,13.86,28.24h.23q14-.21,14-28.24Z"/><path class="cls-3" d="M606.84,696c-1.53-13.56.85-17.75,31.91-41.85C642,665,641.8,677.1,606.84,696Z"/><path class="cls-4" d="M611.39,700.18c15.38,3.84,20.66,2.65,54.36-18.72C653.86,676.72,639.83,674.57,611.39,700.18Z"/><path class="cls-5" d="M644.25,666.78c-3.63-13.28-1.93-17.69,25.09-45.08C674.23,632.06,676,644.1,644.25,666.78Z"/><path class="cls-6" d="M649.41,670.41c15.84,2.07,20.89.29,51-24.69C687.85,642.36,673.61,641.81,649.41,670.41Z"/><path class="cls-7" d="M678,635.6c-7.1-12.21-6.63-16.84,12.32-48.76C697.85,596,702.76,607.36,678,635.6Z"/><path class="cls-8" d="M684,638.14c16-1.06,20.42-3.77,43-33.94C713.88,603.36,699.86,605.6,684,638.14Z"/><path class="cls-9" d="M704.15,597.67c-9.59-10.92-10.11-15.55,1.73-49.85C715.24,555.65,722.5,566.08,704.15,597.67Z"/><path class="cls-10" d="M710.59,599.24c15.49-3.51,19.28-6.86,35-40C732.58,560.44,719.27,564.79,710.59,599.24Z"/><path class="cls-11" d="M721.91,557.94c-12-9.06-13.57-13.51-10.06-49.13C722.87,514.88,732.44,523.87,721.91,557.94Z"/><path class="cls-12" d="M728.59,558.38c14.35-6.07,17.27-10,24.9-45.15C741,516.62,729,523.16,728.59,558.38Z"/><path class="cls-13" d="M730.93,514.48c-13.39-7.49-15.73-11.68-18.35-47.37C724.52,471.76,735.52,479.47,730.93,514.48Z"/><path class="cls-14" d="M737.62,514.09c13.15-7.78,15.37-12,16.91-47.75C742.73,471.24,732,479.19,737.62,514.09Z"/><path class="cls-15" d="M734.62,470.8c-14-6.56-16.78-10.59-22.73-46C724.22,428.65,735.91,435.59,734.62,470.8Z"/><path class="cls-16" d="M741.25,470c12.38-8.65,14.2-13,12.38-48.75C742.33,426.9,732.35,435.55,741.25,470Z"/><path class="cls-17" d="M732.39,438.85c-13.77-4.59-16.83-8-27.19-39.8C717,401.31,728.69,406.49,732.39,438.85Z"/><path class="cls-18" d="M738.34,437.42c10.14-9.16,11.19-13.36,4.57-45.87C733.36,397.89,725.42,406.81,738.34,437.42Z"/><path class="cls-19" d="M724.63,398.86c-15.61-2.62-19.54-5.76-36.71-38C701,361.33,714.48,364.93,724.63,398.86Z"/><path class="cls-20" d="M730.72,396.34c9.09-11.45,9.42-16.11-3.88-49.72C717.83,355,711,365.81,730.72,396.34Z"/><path class="cls-21" d="M707.8,356.65c-14.77-.67-18.94-3.09-40.56-30.49C679.3,325.14,692.29,326.93,707.8,356.65Z"/><path class="cls-22" d="M712.92,353.69c6.22-11.4,5.67-15.67-12.66-44.75C693.54,317.52,689.31,328.11,712.92,353.69Z"/><path class="cls-23" d="M684.38,322c-16,.26-20.75-2.07-46.66-30.23C650.66,289.9,664.86,291,684.38,322Z"/><path class="cls-24" d="M689.63,318.5c5.67-12.74,4.67-17.31-17.83-47.51C665.34,280.71,661.75,292.44,689.63,318.5Z"/><path class="cls-25" d="M633.32,257.48c.75,15.9,12.73,34.82,29.19,30.94C669.07,281.14,662.7,266.13,633.32,257.48Z"/><rect class="cls-26" x="620.23" y="391.47" width="16.61" height="132.72" rx="7.62"/><path class="cls-27" d="M765.48,377.89c.3-5.29-2.72-12,23.4-9.39,28.08.2,112.61,4,128.2-10.82-22.22,53-27.68,66.69-27.68,66.69l23,51.86c-24.18,9.36-51.48,14-115.43,3.51-33.15-47.57-24.18-86.13-24.18-86.13Z"/><path class="cls-28" d="M839.48,390.24c-.29-5.26-2.05-8.77-54.11-5.84-13.16.29-21-.59-19.88-9.66,0,16.38-.12,33.05-.12,33.05l66.22,4.68S839.19,405.45,839.48,390.24Z"/><path class="cls-29" d="M839.48,390.24a6.08,6.08,0,0,0-.79-2.39,3.87,3.87,0,0,0-1.81-1.48,15.79,15.79,0,0,0-4.83-1.06,71.75,71.75,0,0,0-10.21-.88c-6.89-.2-13.81,0-20.73.22-3.46.12-6.92.29-10.38.46l-5.2.28c-1.76,0-3.51.06-5.26,0-3.49-.09-7.06-.18-10.6-1.43a7.56,7.56,0,0,1-4-3.93,9,9,0,0,1-.15-5.33,8.94,8.94,0,0,0,1.11,4.84,6.14,6.14,0,0,0,3.78,2.55c3,1.08,6.52,1.22,9.92,1.3,1.72,0,3.44,0,5.15,0l5.18-.28c3.47-.17,6.94-.34,10.41-.46,6.94-.25,13.89-.42,20.86-.22a76.18,76.18,0,0,1,10.5.9,24.12,24.12,0,0,1,2.58.82,10.64,10.64,0,0,1,2.46,1.27,4.75,4.75,0,0,1,1.77,2.17A6.38,6.38,0,0,1,839.48,390.24Z"/><path class="cls-30" d="M626.17,399.12c96.71,1.56,180.55-1.17,194.59,0s19.89-4.2,18.72-8.88c-1.46,70.2.29,114.65.15,118.46s-1,7.6-40.22,7.89-142.72-.29-154.13,0-19.11.09-19.11.09Z"/><path class="cls-31" d="M658,476.32q0-10,9.92-17.06t10-12.06V435.74q0-5-4.58-5h-.08q-4.62,0-4.62,5v9.88H658v-9.88q0-15.51,15.25-15.51t15.29,15.51v11.73q0,10.14-10,17.28t-10,12.47v7.44h19.91v10.48H658Z"/><path class="cls-32" d="M728.51,480.83q0,15.48-15.29,15.48T698,480.83V435.74q0-15.51,15.25-15.51t15.29,15.51Zm-10.63-45.09q0-5-4.62-5h-.08q-4.57,0-4.58,5v45.09q0,5,4.62,5c3.1,0,4.66-1.66,4.66-5Z"/><path class="cls-33" d="M737.9,476.32q0-10,9.92-17.06t10-12.06V435.74c0-3.33-1.52-5-4.58-5h-.07c-3.08,0-4.63,1.66-4.63,5v9.88H737.9v-9.88q0-15.51,15.26-15.51t15.29,15.51v11.73q0,10.14-10,17.28t-10,12.47v7.44h19.92v10.48H737.9Z"/><path class="cls-34" d="M791.74,495.14V432.29l-10,1.88V424.06l20.59-3.76v74.84Z"/><path class="cls-35" d="M393.16,696c1.53-13.56-.85-17.75-31.91-41.85C358,665,358.2,677.1,393.16,696Z"/><path class="cls-36" d="M388.61,700.18c-15.38,3.84-20.66,2.65-54.36-18.72C346.14,676.72,360.17,674.57,388.61,700.18Z"/><path class="cls-37" d="M355.75,666.78c3.63-13.28,1.93-17.69-25.09-45.08C325.77,632.06,324.05,644.1,355.75,666.78Z"/><path class="cls-38" d="M350.59,670.41c-15.84,2.07-20.89.29-51-24.69C312.15,642.36,326.39,641.81,350.59,670.41Z"/><path class="cls-39" d="M322,635.6c7.1-12.21,6.63-16.84-12.32-48.76C302.15,596,297.24,607.36,322,635.6Z"/><path class="cls-40" d="M316,638.14c-16-1.06-20.42-3.77-43-33.94C286.12,603.36,300.14,605.6,316,638.14Z"/><path class="cls-41" d="M295.85,597.67c9.59-10.92,10.11-15.55-1.73-49.85C284.76,555.65,277.5,566.08,295.85,597.67Z"/><path class="cls-42" d="M289.41,599.24c-15.49-3.51-19.28-6.86-35-40C267.42,560.44,280.73,564.79,289.41,599.24Z"/><path class="cls-43" d="M278.09,557.94c12-9.06,13.57-13.51,10.06-49.13C277.13,514.88,267.56,523.87,278.09,557.94Z"/><path class="cls-44" d="M271.41,558.38c-14.35-6.07-17.27-10-24.9-45.15C259,516.62,271,523.16,271.41,558.38Z"/><path class="cls-45" d="M269.07,514.48c13.39-7.49,15.73-11.68,18.35-47.37C275.48,471.76,264.48,479.47,269.07,514.48Z"/><path class="cls-46" d="M262.38,514.09c-13.15-7.78-15.37-12-16.91-47.75C257.27,471.24,268,479.19,262.38,514.09Z"/><path class="cls-47" d="M265.38,470.8c14.05-6.56,16.78-10.59,22.73-46C275.78,428.65,264.09,435.59,265.38,470.8Z"/><path class="cls-48" d="M258.75,470c-12.38-8.65-14.2-13-12.38-48.75C257.67,426.9,267.65,435.55,258.75,470Z"/><path class="cls-49" d="M267.61,438.85c13.77-4.59,16.83-8,27.19-39.8C283,401.31,271.31,406.49,267.61,438.85Z"/><path class="cls-50" d="M261.66,437.42c-10.14-9.16-11.19-13.36-4.57-45.87C266.64,397.89,274.58,406.81,261.66,437.42Z"/><path class="cls-51" d="M275.37,398.86c15.61-2.62,19.54-5.76,36.71-38C299,361.33,285.52,364.93,275.37,398.86Z"/><path class="cls-52" d="M269.28,396.34c-9.09-11.45-9.42-16.11,3.88-49.72C282.17,355,289,365.81,269.28,396.34Z"/><path class="cls-53" d="M292.2,356.65c14.77-.67,18.94-3.09,40.56-30.49C320.7,325.14,307.71,326.93,292.2,356.65Z"/><path class="cls-54" d="M287.08,353.69c-6.22-11.4-5.67-15.67,12.66-44.75C306.46,317.52,310.69,328.11,287.08,353.69Z"/><path class="cls-55" d="M315.62,322c16,.26,20.75-2.07,46.66-30.23C349.34,289.9,335.14,291,315.62,322Z"/><path class="cls-56" d="M310.37,318.5c-5.67-12.74-4.67-17.31,17.83-47.51C334.66,280.71,338.25,292.44,310.37,318.5Z"/><path class="cls-57" d="M366.68,257.48c-.75,15.9-12.73,34.82-29.19,30.94C330.93,281.14,337.3,266.13,366.68,257.48Z"/><rect class="cls-58" x="363.16" y="391.47" width="16.61" height="132.72" rx="7.62" transform="translate(742.93 915.67) rotate(180)"/><path class="cls-59" d="M234.52,377.89c-.3-5.29,2.72-12-23.4-9.39-28.08.2-112.61,4-128.2-10.82,22.22,53,27.68,66.69,27.68,66.69l-23,51.86c24.18,9.36,51.48,14,115.43,3.51,33.15-47.57,24.18-86.13,24.18-86.13Z"/><path class="cls-60" d="M160.52,390.24c.29-5.26,2-8.77,54.11-5.84,13.16.29,21.05-.59,19.88-9.66,0,16.38.12,33.05.12,33.05l-66.22,4.68S160.81,405.45,160.52,390.24Z"/><path class="cls-61" d="M160.52,390.24a6.38,6.38,0,0,1,.27-2.65,4.75,4.75,0,0,1,1.77-2.17,10.64,10.64,0,0,1,2.46-1.27,24.12,24.12,0,0,1,2.58-.82,76.18,76.18,0,0,1,10.5-.9c7-.2,13.92,0,20.86.22,3.47.12,6.94.29,10.41.46l5.18.28c1.71,0,3.43.06,5.15,0,3.4-.08,6.89-.22,9.92-1.3a6.14,6.14,0,0,0,3.78-2.55,8.94,8.94,0,0,0,1.11-4.84,9,9,0,0,1-.15,5.33,7.56,7.56,0,0,1-4,3.93c-3.54,1.25-7.11,1.34-10.6,1.43-1.75,0-3.5,0-5.26,0l-5.2-.28c-3.46-.17-6.92-.34-10.38-.46-6.92-.26-13.84-.42-20.73-.22a71.75,71.75,0,0,0-10.21.88,15.79,15.79,0,0,0-4.83,1.06,3.87,3.87,0,0,0-1.81,1.48A6.08,6.08,0,0,0,160.52,390.24Z"/><path class="cls-62" d="M373.83,399.12c-96.71,1.56-180.55-1.17-194.59,0s-19.89-4.2-18.72-8.88c1.46,70.2-.29,114.65-.15,118.46s1,7.6,40.22,7.89,142.72-.29,154.13,0,19.11.09,19.11.09Z"/><path class="cls-63" d="M197.24,490.8V429.85l-9.66,1.82v-9.8l20-3.64V490.8Z"/><path class="cls-64" d="M242.52,459.5a10.47,10.47,0,0,1-7.21,2.63c-.46,0-.95,0-1.46-.08a11.79,11.79,0,0,1-7.76-3.53q-2.88-3.13-2.88-11.11V433.2q0-15,14.83-15t14.79,15v43.72q0,15-14.83,15t-14.79-15V467.3h10.31v9.62c0,3.2,1.5,4.82,4.48,4.84h.08q4.44,0,4.44-4.84Zm-9-12.09q0,3.79,1.61,4.48a7.45,7.45,0,0,0,2.73.36l1,0c2.43-.07,3.64-1.68,3.64-4.81V433.2q0-4.84-4.48-4.84t-4.52,4.84Z"/><path class="cls-65" d="M281.61,459.5a10.47,10.47,0,0,1-7.21,2.63c-.46,0-.95,0-1.46-.08a11.79,11.79,0,0,1-7.76-3.53q-2.88-3.13-2.88-11.11V433.2q0-15,14.83-15t14.79,15v43.72q0,15-14.83,15t-14.79-15V467.3h10.31v9.62c0,3.2,1.5,4.82,4.48,4.84h.08q4.44,0,4.44-4.84Zm-9-12.09c0,2.53.54,4,1.6,4.48a7.51,7.51,0,0,0,2.74.36l1,0c2.43-.07,3.64-1.68,3.64-4.81V433.2q0-4.84-4.48-4.84t-4.52,4.84Z"/><path class="cls-66" d="M311.7,450.58a10.22,10.22,0,0,1,7.1-2.59c.51,0,1,0,1.57.08a11.79,11.79,0,0,1,7.76,3.53q2.88,3.09,2.88,11.11v14.21q0,15-14.83,15t-14.79-15V433.2q0-15,14.79-15t14.83,15v9.58H320.7V433.2q0-4.84-4.48-4.84h-.07q-4.45,0-4.45,4.84Zm9,12.13c0-2.55-.54-4-1.6-4.48a7.19,7.19,0,0,0-2.81-.4c-.31,0-.64,0-1,0-2.41.09-3.61,1.71-3.61,4.84v14.21q0,4.84,4.48,4.84t4.52-4.84Z"/><path class="cls-67" d="M465.74,678.17c1.56,0,2.35,1.31,2.35,3.91s-.85,7.61-2.54,15-4.65,17.38-8.87,30-8.53,22.85-13,30.76c1.3-.09,3.62-.17,7-.26s6.08-.18,8.21-.26a67.85,67.85,0,0,0,7.69-.85,29.09,29.09,0,0,0,7.36-2q6.92-3.25,8.08-9.64c-.17-1.13-.11-1.76.2-1.89s.54,0,.71.45a7.58,7.58,0,0,1,.92,3.65q0,2-2.09,5.41t-8.21,6q-6.12,2.54-31.8,2.8a67.38,67.38,0,0,1-15.83,16.55A82.5,82.5,0,0,1,405.66,789q-10.68,4-18.05,4a39.64,39.64,0,0,1-12.44-1.7q-9.78-3.25-9.78-9.9,0-8.61,15.77-15.12,20.2-8.34,56.3-8.34,12.78-31.27,17.86-50.43Q443.46,733,428.86,742.94q-7.69,5.22-14.86,5.22t-11.14-3.91q-4-3.91-4-10.69,0-14.2,19.28-45.61a109.83,109.83,0,0,0,9.65-19.81q4.17-11.08,4.17-19t-5.15-11.34a22.12,22.12,0,0,0-12.45-3.38,30.82,30.82,0,0,0-6.12.65q-23.46,4.43-42.36,24.37A69,69,0,0,0,352,680q-4.56,11.34-4.56,19.42a20.43,20.43,0,0,0,.91,6.25q2.61,9.51,10.3,13a20.06,20.06,0,0,0,8.08,1.7q14.46,0,24.63-16.16,5.73-9.25,5.73-16.16,0-9-8.08-9a19.52,19.52,0,0,0-3.78.45c-1.48.31-2.26.2-2.34-.32-.09-.7.91-1.31,3-1.83a24.85,24.85,0,0,1,6-.78c4.51,0,7.56,1.91,9.12,5.73a13.61,13.61,0,0,1,1,5.35q0,5.73-4,13.29a46,46,0,0,1-23.32,20.85,22.67,22.67,0,0,1-8.61,2q-12.63,0-19.8-9.13A27,27,0,0,1,340,697.07a45,45,0,0,1,4.82-19.81A74.66,74.66,0,0,1,357.38,659,87.83,87.83,0,0,1,374,644.94a102,102,0,0,1,18.64-9.51,52.19,52.19,0,0,1,18.9-4,41.68,41.68,0,0,1,15.24,2.6q6.92,3.13,9.78,8.41a23,23,0,0,1,2.87,11.14q0,14.73-10.82,32.71-16.82,28.68-20.33,44.57a30.49,30.49,0,0,0-.52,5.74,9.17,9.17,0,0,0,1.95,5.6,6.74,6.74,0,0,0,5.74,2.61q5.34,0,11.6-4.56,7.43-5.22,14.85-17.08a167.57,167.57,0,0,0,18.64-40.53,4.7,4.7,0,0,1,2.34-3.25A6.64,6.64,0,0,1,465.74,678.17ZM372.43,782.69a4.61,4.61,0,0,0,.52,2.09q2.74,4.43,12.58,4.43A54.31,54.31,0,0,0,404.29,786a68.39,68.39,0,0,0,17.4-9.58,54.51,54.51,0,0,0,13.95-15.18q-34.15,0-52.39,10.55Q372.42,778,372.43,782.69Z"/><path class="cls-68" d="M475.78,721.05A25.68,25.68,0,0,0,474,731a9.33,9.33,0,0,0,1.63,5.8,5.45,5.45,0,0,0,4.63,2.15q11.85,0,21.5-22.28.92-2.08,2.22-1.83a.63.63,0,0,1,.52.66,55.74,55.74,0,0,1-2.94,6.84,54.86,54.86,0,0,1-5.93,10.23q-6.65,9.12-16.42,9.12a12.55,12.55,0,0,1-8.86-3.39,12,12,0,0,1-3.65-9.25,32,32,0,0,1,2.8-12.45,47.72,47.72,0,0,1,7.63-12.25A29.24,29.24,0,0,1,488.16,696a14.34,14.34,0,0,1,5.73-1.31,9,9,0,0,1,5.08,1.57,5.22,5.22,0,0,1,2.22,4q0,7.81-9.38,15a28,28,0,0,1-8.08,4A27.52,27.52,0,0,1,475.78,721.05Zm21.89-20.85c0-1.74-.7-2.61-2.09-2.61q-3.65,0-11.07,9a67.05,67.05,0,0,0-7.82,12.25,20.71,20.71,0,0,0,6.45-1.56,24.66,24.66,0,0,0,7.36-4.17Q497.67,707,497.67,700.2Z"/><path class="cls-69" d="M535.07,716.42q-4.3,8.28-5.15,12.38a34.86,34.86,0,0,0-.84,6.65c0,1.69.65,2.54,1.95,2.54q2.47,0,6.13-4.56a92.62,92.62,0,0,0,10.55-17.33c.35-.79.74-1.22,1.17-1.31.7-.26,1,0,1,.79a4.12,4.12,0,0,1-.39,1.56q-12,24.24-20.2,24.24a7.06,7.06,0,0,1-6.13-3.65,10.08,10.08,0,0,1-1.17-5.21,30.56,30.56,0,0,1,1.3-7.95q-10.43,16.81-18,16.81a6,6,0,0,1-3.78-1.3q-3.91-2.75-3.91-9.39,0-12.77,11.08-25.93a28.68,28.68,0,0,1,15.37-9.51,18.26,18.26,0,0,1,4.69-.66A13.84,13.84,0,0,1,539,698.76a2.55,2.55,0,0,1,.78,2.74,1.79,1.79,0,0,1-2.21,1,6,6,0,0,0-6.26-4.69q-5.6,0-13.81,8.86A71.22,71.22,0,0,0,508.75,719q-5.08,8.47-5.09,13.56t3.26,5.08q7.81,0,20.46-24a30,30,0,0,1,4.17-6.58,5.72,5.72,0,0,1,4.3-1.76,21.74,21.74,0,0,1,2.67.39,8.17,8.17,0,0,0,3.2.13Q539.37,708.16,535.07,716.42Z"/><path class="cls-70" d="M565.17,688.86q0,5.86-7.42,11.08c1.73.08,4.06.13,7,.13s6.58-.22,11-.65a4.88,4.88,0,0,1,.26,2.08,13.38,13.38,0,0,1-1.56,5c-1,2.21-2,4.13-2.8,5.73l-2.35,4.56c-.74,1.44-1.56,3.2-2.48,5.28s-1.67,4-2.28,5.74q-3.25,9.9,1,9.9,5.48,0,16.17-21.76c.6-1.13,1.1-1.57,1.49-1.31a1.14,1.14,0,0,1,.59,1,18.61,18.61,0,0,1-1.69,4q-1.7,3.45-3.65,7.1a48.86,48.86,0,0,1-6.13,8.47q-5,6-9.51,6-5.08,0-7-6.13a11.83,11.83,0,0,1-.39-3.51,18.66,18.66,0,0,1,1.5-6.26,67.38,67.38,0,0,1,4.76-9.51c2.17-3.74,3.38-5.93,3.64-6.59a5.09,5.09,0,0,0,.4-1.88q0-4.05-10.43-4.31l-1.56,4.17q-8.22,21.51-15.77,28.81c-.87.78-1.31.52-1.31-.79a2.15,2.15,0,0,1,.26-.91,100,100,0,0,0,12.65-22.8,124.06,124.06,0,0,0,7.42-25c.53-2.69,1.74-4,3.65-4s3.3,1.22,4.17,3.65A8.71,8.71,0,0,1,565.17,688.86Z"/><path class="cls-71" d="M592.67,738.64a17.2,17.2,0,0,0,2.35.26q5.21,0,10.29-6.12,2.75-3.39,9.78-17.07a.91.91,0,0,1,.91-.66c.78-.08,1.17.22,1.17.92a6,6,0,0,1-.58,1.5c-.39.82-.77,1.65-1.11,2.47s-.91,2-1.7,3.59-1.45,2.82-2,3.77-1.28,2.14-2.15,3.52a15.51,15.51,0,0,1-2.6,3.26L604.27,737a12.4,12.4,0,0,1-5.21,3.13,15.88,15.88,0,0,1-9.39.26,13.76,13.76,0,0,1-5.34,1.3q-9.26,0-11.21-7.3a18.51,18.51,0,0,1-.39-4.1,7.75,7.75,0,0,1,1.63-4.63,4.93,4.93,0,0,1,3.46-2.35q6.64-12.63,11.33-22.8,5.22-11.09,12.12-11.08a8.15,8.15,0,0,1,3.59.85c1.17.56,1.6,1.19,1.3,1.89s-.93.82-1.89.39a6.09,6.09,0,0,0-2.48-.65,4,4,0,0,0-1.82.39q-4.43,2.09-4.43,9a14.73,14.73,0,0,0,1,6c.7,1.57,1.48,3.26,2.35,5.09q3,6.78,3,11.07a15.34,15.34,0,0,1-2.73,8.48A24.25,24.25,0,0,1,592.67,738.64Zm-14.2-4.43a11.69,11.69,0,0,0,.13,1.7,4.55,4.55,0,0,0,4.82,3.51,5.81,5.81,0,0,0,2.61-.52q-4.83-3-5.22-9.77A7.1,7.1,0,0,0,578.47,734.21Zm9.77,3.52q5.73-4.43,5.73-14.34a90.93,90.93,0,0,0-.91-11.07,90.1,90.1,0,0,1-.91-9.52,27.73,27.73,0,0,1,.13-3.38q-9.9,19.8-12.25,24.11c1.82,0,2.74,1.3,2.74,3.91Q582.77,735.12,588.24,737.73Z"/><path class="cls-72" d="M273.13,289.06c-7.74,9.43-21.11,10.21-30.75,2.29s-11.66-21.12-3.61-30.92A21.51,21.51,0,0,1,254.38,252l1.34,7.22c-4.61.55-8.56,1.95-11.59,5.65-5.1,6.19-3.53,15,3.06,20.4s15.61,5.32,20.7-.87c3.27-4,3.69-7.89,3.29-12.86l6.82-.51C278.86,277.43,278.11,283,273.13,289.06Z"/><path class="cls-73" d="M296.85,214.23l-18,15.43,7.32,8.53,15.94-13.68,4.42,5.16-15.93,13.68,7.56,8.81,18.21-15.63,4.42,5.16L297,262.11,268.86,229.3l23.56-20.23Z"/><path class="cls-74" d="M315,193.06l6.3-3.8,18.8,31.08L358.9,209l3.58,5.92-25.13,15.2Z"/><path class="cls-75" d="M395.21,161.22l-22,8.67,4.12,10.46,19.54-7.69,2.48,6.33-19.54,7.69,4.26,10.8,22.32-8.78,2.49,6.32L379.67,206.5l-15.84-40.24,28.9-11.37Z"/><path class="cls-76" d="M453.85,151.57c1,5.21-1.27,8.43-4,10.67,5.15.75,9.06,2.94,10.2,8.76,1.5,7.64-3.75,12.89-12.91,14.69l-19,3.73L419.78,147l18.43-3.62C446.49,141.74,452.54,144.9,453.85,151.57Zm-7,2.63c-.67-3.46-3.65-4.95-8.29-4l-10.39,2,2.21,11.28,9.87-1.94C444.89,160.63,447.64,158.14,446.86,154.2Zm5.8,17.43c-.71-3.63-3.89-5.21-9.58-4.1l-11.45,2.25,2.28,11.64,12-2.35C450.82,178.1,453.42,175.51,452.66,171.63Z"/><path class="cls-77" d="M508.83,180.65l-10.54-14.9-9.21.16.25,15.07-7.36.12-.72-43.23,18.67-.31c9.63-.16,15.64,5,15.78,13.45.12,7.16-3.94,11.55-9.77,13.32l11.58,16.18Zm-9.4-36.17-10.7.18.24,14.52,10.76-.18c5.27-.09,8.57-3,8.5-7.44C508.15,146.81,504.88,144.39,499.43,144.48Z"/><path class="cls-78" d="M575.68,189.71,568,188.29l-2.27-11-19.47-3.61-6.14,9.48-7.41-1.37,26-39.46,6.71,1.24Zm-15.31-37.89-10.21,15.69,14.18,2.63Z"/><path class="cls-79" d="M604.93,200l-7-2.56,12.46-34L598,158.83l2.43-6.61,31.9,11.7-2.42,6.61L617.39,166Z"/><path class="cls-80" d="M662.05,178.79,641.73,217l-6.49-3.46,20.32-38.17Z"/><path class="cls-81" d="M710.83,210.93l5.81,4.31L690.88,250l-5-3.67-.22-38.47-18.33,24.71-5.81-4.32,25.76-34.72,5.48,4.06.21,37.38Z"/><path class="cls-82" d="M720.09,279.88c-8.85-9.66-7.57-22.52,1.76-31.08,9-8.22,22.59-8.54,31.13.76,4.93,5.38,6.41,10.11,6.55,15.83l-7.39.44c-.09-4.3-.91-7.85-4.51-11.77-5.22-5.69-14.28-5.33-20.47.35-6.6,6-7.59,14.66-1.81,21a16.77,16.77,0,0,0,9.25,5.24l6-5.47-7.23-7.89,4.87-4.47,12,13.14L736.86,288.2A26.24,26.24,0,0,1,720.09,279.88Z"/><path class="cls-83" d="M68.84,857.16A22.73,22.73,0,0,1,70.47,848a16.82,16.82,0,0,1,3.32-4.88,13.73,13.73,0,0,1,4.6-3.2,19.51,19.51,0,0,1,7.67-1.41q7.88,0,12.59,4.88T103.37,857q0,8.63-4.68,13.49t-12.53,4.87c-5.3,0-9.5-1.62-12.63-4.85S68.84,862.83,68.84,857.16Zm7.41-.24q0,6,2.79,9.17a9.6,9.6,0,0,0,14.15,0q2.75-3.09,2.75-9.29t-2.68-9.13a9.94,9.94,0,0,0-14.29,0Q76.26,850.78,76.25,856.92Z"/><path class="cls-84" d="M131.76,861.65l7,2.21q-1.6,5.83-5.33,8.66a16.76,16.76,0,0,1-21.11-2q-4.58-4.83-4.57-13.24,0-8.89,4.59-13.81a15.76,15.76,0,0,1,12.07-4.91A14.78,14.78,0,0,1,135,842.4a14,14,0,0,1,3.64,6.55l-7.11,1.7a7.36,7.36,0,0,0-7.51-6,8.11,8.11,0,0,0-6.42,2.84c-1.64,1.9-2.46,5-2.46,9.2q0,6.76,2.43,9.62a7.87,7.87,0,0,0,6.31,2.87,7.19,7.19,0,0,0,4.93-1.83A10.59,10.59,0,0,0,131.76,861.65Z"/><path class="cls-85" d="M144.9,874.74v-35.6h26.39v6H152.08v7.89H170v6H152.08v9.68H172v6Z"/><path class="cls-86" d="M210.17,874.74h-7.82l-3.11-8.08H185l-2.94,8.08h-7.62l13.86-35.6h7.6Zm-13.24-14.08L192,847.45l-4.81,13.21Z"/><path class="cls-87" d="M214.05,874.74v-35.6h7l14.57,23.78V839.14h6.67v35.6h-7.21l-14.35-23.21v23.21Z"/><path class="cls-88" d="M263.9,874.74v-35.3h7.19v29.3H289v6Z"/><path class="cls-89" d="M293.87,874.74v-35.6h7.19v35.6Z"/><path class="cls-90" d="M308,874.74v-35.6h24.41v6H315.14v8.42H330v6H315.14v15.13Z"/><path class="cls-91" d="M338.28,874.74v-35.6h26.4v6H345.47v7.89h17.87v6H345.47v9.68h19.89v6Z"/><path class="cls-92" d="M369.63,863.16l7-.68a8.55,8.55,0,0,0,2.56,5.17,7.77,7.77,0,0,0,5.21,1.65,8,8,0,0,0,5.24-1.47,4.37,4.37,0,0,0,1.76-3.43,3.26,3.26,0,0,0-.74-2.15,5.92,5.92,0,0,0-2.59-1.54q-1.26-.44-5.76-1.56c-3.85-.95-6.55-2.13-8.11-3.52a9.26,9.26,0,0,1-3.27-7.16,9.15,9.15,0,0,1,1.54-5.09,9.62,9.62,0,0,1,4.44-3.6,17.76,17.76,0,0,1,7-1.24q6.7,0,10.09,2.94a10.36,10.36,0,0,1,3.55,7.84l-7.18.31a6.13,6.13,0,0,0-2-3.94,7.26,7.26,0,0,0-4.56-1.2,8.27,8.27,0,0,0-4.9,1.28,2.6,2.6,0,0,0-1.14,2.21,2.69,2.69,0,0,0,1.07,2.16q1.35,1.15,6.6,2.38a34.66,34.66,0,0,1,7.76,2.57,9.87,9.87,0,0,1,3.93,3.61,10.56,10.56,0,0,1,1.42,5.67,10.42,10.42,0,0,1-1.7,5.73,10.13,10.13,0,0,1-4.8,4,20.14,20.14,0,0,1-7.75,1.3q-6.75,0-10.37-3.12T369.63,863.16Z"/><path class="cls-93" d="M404.62,874.74v-35.6h11.53a41.44,41.44,0,0,1,8.55.54,9.38,9.38,0,0,1,5.13,3.48,11.1,11.1,0,0,1,2.06,6.94,11.66,11.66,0,0,1-1.19,5.51,9.74,9.74,0,0,1-3,3.51A10.39,10.39,0,0,1,424,860.8a41.07,41.07,0,0,1-7.46.51h-4.68v13.43Zm7.19-29.57v10.1h3.93a18.62,18.62,0,0,0,5.68-.56,4.7,4.7,0,0,0,2.25-1.75,4.78,4.78,0,0,0,.81-2.77,4.59,4.59,0,0,0-1.14-3.2,5,5,0,0,0-2.89-1.58,34.93,34.93,0,0,0-5.17-.24Z"/><path class="cls-94" d="M466.2,874.74h-7.82l-3.11-8.08H441l-2.94,8.08h-7.62l13.87-35.6H452ZM453,860.66l-4.91-13.21-4.81,13.21Z"/><path class="cls-95" d="M492.79,861.65l7,2.21q-1.61,5.83-5.33,8.66a16.77,16.77,0,0,1-21.12-2q-4.56-4.83-4.56-13.24,0-8.89,4.59-13.81a15.76,15.76,0,0,1,12.07-4.91A14.78,14.78,0,0,1,496,842.4a14,14,0,0,1,3.64,6.55l-7.11,1.7a7.36,7.36,0,0,0-7.51-6,8.1,8.1,0,0,0-6.42,2.84c-1.64,1.9-2.46,5-2.46,9.2q0,6.76,2.42,9.62a7.9,7.9,0,0,0,6.32,2.87,7.19,7.19,0,0,0,4.93-1.83A10.59,10.59,0,0,0,492.79,861.65Z"/><path class="cls-96" d="M505.93,874.74v-35.6h26.39v6H513.11v7.89H531v6H513.11v9.68H533v6Z"/><path class="cls-97" d="M537.27,863.16l7-.68a8.49,8.49,0,0,0,2.56,5.17A7.75,7.75,0,0,0,552,869.3a8,8,0,0,0,5.23-1.47A4.37,4.37,0,0,0,559,864.4a3.26,3.26,0,0,0-.74-2.15,5.87,5.87,0,0,0-2.58-1.54q-1.28-.44-5.76-1.56c-3.85-.95-6.56-2.13-8.11-3.52a9.35,9.35,0,0,1-1.74-12.25,9.6,9.6,0,0,1,4.45-3.6,17.71,17.71,0,0,1,7-1.24q6.71,0,10.09,2.94a10.33,10.33,0,0,1,3.56,7.84l-7.19.31a6.13,6.13,0,0,0-2-3.94,7.25,7.25,0,0,0-4.55-1.2,8.3,8.3,0,0,0-4.91,1.28,2.6,2.6,0,0,0-1.14,2.21,2.72,2.72,0,0,0,1.07,2.16q1.37,1.15,6.61,2.38a34.54,34.54,0,0,1,7.75,2.57,10,10,0,0,1,3.94,3.61,11.21,11.21,0,0,1-.28,11.4,10.16,10.16,0,0,1-4.81,4,20.07,20.07,0,0,1-7.75,1.3q-6.75,0-10.36-3.12T537.27,863.16Z"/><path class="cls-98" d="M585.86,874.74v-35.6h7.19v35.6Z"/><path class="cls-99" d="M600,874.74v-35.6h7l14.57,23.78V839.14h6.68v35.6H621l-14.35-23.21v23.21Z"/><path class="cls-100" d="M635.79,839.14h13.13a25.83,25.83,0,0,1,6.78.68,12,12,0,0,1,5.37,3.28,15.61,15.61,0,0,1,3.39,5.77,26.15,26.15,0,0,1,1.17,8.41,23.38,23.38,0,0,1-1.09,7.58,15.59,15.59,0,0,1-3.82,6.29,12.64,12.64,0,0,1-5.05,2.84,21.75,21.75,0,0,1-6.36.75H635.79Zm7.18,6v23.57h5.37a19.39,19.39,0,0,0,4.35-.34,6.61,6.61,0,0,0,2.9-1.48,7.44,7.44,0,0,0,1.88-3.43,23.09,23.09,0,0,0,.73-6.52,21.13,21.13,0,0,0-.73-6.34,8.08,8.08,0,0,0-2-3.45,6.83,6.83,0,0,0-3.33-1.67,32.23,32.23,0,0,0-5.9-.34Z"/><path class="cls-101" d="M671.51,874.74v-35.6h7.18v35.6Z"/><path class="cls-102" d="M717.64,874.74h-7.82l-3.1-8.08H692.49l-2.94,8.08h-7.63l13.87-35.6h7.6Zm-13.23-14.08-4.91-13.21-4.8,13.21Z"/><path class="cls-103" d="M733.43,874.74v-35.6H745a41.44,41.44,0,0,1,8.55.54,9.32,9.32,0,0,1,5.12,3.48,11,11,0,0,1,2.07,6.94,11.66,11.66,0,0,1-1.19,5.51,9.77,9.77,0,0,1-3,3.51,10.24,10.24,0,0,1-3.73,1.68,41,41,0,0,1-7.45.51h-4.69v13.43Zm7.18-29.57v10.1h3.94a18.67,18.67,0,0,0,5.68-.56,4.66,4.66,0,0,0,3.06-4.52,4.59,4.59,0,0,0-1.14-3.2,5,5,0,0,0-2.89-1.58,34.93,34.93,0,0,0-5.17-.24Z"/><path class="cls-104" d="M775.68,874.74,763,839.14h7.8l9,26.35,8.71-26.35h7.63l-12.75,35.6Z"/><path class="cls-105" d="M807.78,874.74V845.17H797.22v-6H825.5v6H815v29.57Z"/><path class="cls-106" d="M844.15,874.74v-35.3h7.19v29.3h17.87v6Z"/><path class="cls-107" d="M878.66,874.74V845.17H868.1v-6h28.28v6H885.85v29.57Z"/><path class="cls-108" d="M901,839.14h13.13a25.78,25.78,0,0,1,6.78.68,12,12,0,0,1,5.37,3.28,15.77,15.77,0,0,1,3.4,5.77,26.46,26.46,0,0,1,1.16,8.41,23.38,23.38,0,0,1-1.09,7.58,15.69,15.69,0,0,1-3.81,6.29,12.71,12.71,0,0,1-5.05,2.84,21.87,21.87,0,0,1-6.37.75H901Zm7.19,6v23.57h5.36a19.39,19.39,0,0,0,4.35-.34,6.61,6.61,0,0,0,2.9-1.48,7.44,7.44,0,0,0,1.88-3.43,23.09,23.09,0,0,0,.73-6.52,21.13,21.13,0,0,0-.73-6.34,8.08,8.08,0,0,0-2-3.45,6.84,6.84,0,0,0-3.32-1.67,32.38,32.38,0,0,0-5.9-.34Z"/></svg>