<svg version="1.1" id="Layer_1" xmlns="http://www.w3.org/2000/svg" xmlns:xlink="http://www.w3.org/1999/xlink" x="0px" y="0px"
	 viewBox="0 0 189.7 219.2" style="enable-background:new 0 0 189.7 219.2;" xml:space="preserve">
<style type="text/css">
	#Layer_1 .st0{opacity:0.465;fill:#D0D0D0;enable-background:new    ;}
	#Layer_1 .st1{fill:none;stroke:#8B8686;stroke-width:0.444;stroke-miterlimit:10;}
</style>
<g class="Rectangle">
	<rect id="Rectangle" x="121.7" class="st0" width="68" height="68"/>
</g>
<g class="circle">
	<path id="circle" class="st0" d="M155.7,0L155.7,0c18.8,0,34,15,34,33.5v1c0,18.5-15.2,33.5-34,33.5l0,0c-18.8,0-34-15-34-33.5v-1
	C121.7,15,137,0,155.7,0z"/>
</g>
<g class="grid">
	<g id="grid" transform="translate(149.546 -770.215)">
		<line id="Line_40" class="st1" x1="-136" y1="789.5" x2="-136" y2="989.4"/>
		<line id="Line_41" class="st1" x1="-110.4" y1="789.5" x2="-110.4" y2="989.4"/>
		<line id="Line_42" class="st1" x1="-94.5" y1="789.5" x2="-94.5" y2="989.4"/>
		<line id="Line_43" class="st1" x1="-78.6" y1="789.5" x2="-78.6" y2="989.4"/>
		<line id="Line_44" class="st1" x1="-62.7" y1="789.5" x2="-62.7" y2="989.4"/>
		<line id="Line_45" class="st1" x1="-46.9" y1="789.5" x2="-46.9" y2="989.4"/>
		<line id="Line_46" class="st1" x1="-31" y1="789.5" x2="-31" y2="989.4"/>
		<line id="Line_47" class="st1" x1="-15.1" y1="789.5" x2="-15.1" y2="989.4"/>
		<line id="Line_48" class="st1" x1="0.8" y1="789.5" x2="0.8" y2="989.4"/>
		<line id="Line_49" class="st1" x1="20.9" y1="789.5" x2="20.9" y2="989.4"/>
		<line id="Line_50" class="st1" x1="40" y1="830.8" x2="-149.5" y2="830.8"/>
		<line id="Line_51" class="st1" x1="40" y1="847.5" x2="-149.5" y2="847.5"/>
		<line id="Line_52" class="st1" x1="40" y1="864.3" x2="-149.5" y2="864.3"/>
		<line id="Line_53" class="st1" x1="40" y1="881" x2="-149.5" y2="881"/>
		<line id="Line_54" class="st1" x1="40" y1="897.8" x2="-149.5" y2="897.8"/>
		<line id="Line_55" class="st1" x1="40" y1="914.5" x2="-149.5" y2="914.5"/>
		<line id="Line_56" class="st1" x1="40" y1="931.3" x2="-149.5" y2="931.3"/>
		<line id="Line_57" class="st1" x1="40" y1="948" x2="-149.5" y2="948"/>
		<line id="Line_58" class="st1" x1="40" y1="970.3" x2="-149.5" y2="970.3"/>
	</g>
</g>
</svg>
