<svg xmlns="http://www.w3.org/2000/svg" width="374" height="390.636" viewBox="0 0 374 390.636">
  <g id="Group_613" data-name="Group 613" transform="translate(-603.26 -338.538)">
    <g id="Group_546" data-name="Group 546" transform="translate(814.267 565.445)">
      <g id="Group_545" data-name="Group 545" transform="translate(0)" style="isolation: isolate">
        <g id="Group_542" data-name="Group 542" transform="translate(42.802 24.723)">
          <path id="Path_729" data-name="Path 729" d="M939.483,674.021l3.709-2.157-.011,3.849-3.709,2.157Z" transform="translate(-939.472 -671.864)" fill="#b8b8b8"/>
        </g>
        <g id="Group_543" data-name="Group 543" transform="translate(0.011)">
          <path id="Path_730" data-name="Path 730" d="M882.789,641.27l3.71-2.157,42.8,24.723-3.71,2.157Z" transform="translate(-882.789 -639.114)" fill="#d1d1d1"/>
        </g>
        <g id="Group_544" data-name="Group 544" transform="translate(0 2.157)">
          <path id="Path_731" data-name="Path 731" d="M925.587,666.694l-.011,3.849-42.8-24.723.011-3.849Z" transform="translate(-882.774 -641.971)" fill="#7b7b7b"/>
        </g>
      </g>
    </g>
    <g id="Group_551" data-name="Group 551" transform="translate(603.26 503.933)">
      <g id="Group_550" data-name="Group 550" style="isolation: isolate">
        <g id="Group_547" data-name="Group 547" transform="translate(0 144.209)">
          <path id="Path_732" data-name="Path 732" d="M726.924,820.527,603.26,748.66l.027,9.167L726.95,829.692Z" transform="translate(-603.26 -748.66)" fill="#bbbcbb"/>
        </g>
        <g id="Group_548" data-name="Group 548">
          <path id="Path_733" data-name="Path 733" d="M977.234,629.5,853.57,557.631,603.26,701.841l123.663,71.867Z" transform="translate(-603.26 -557.631)" fill="#e0e0e0"/>
        </g>
        <g id="Group_549" data-name="Group 549" transform="translate(123.663 71.865)">
          <path id="Path_734" data-name="Path 734" d="M767.073,797.039l.027,9.165,250.31-144.212-.027-9.164Z" transform="translate(-767.073 -652.828)" fill="#c6c6c6"/>
        </g>
      </g>
    </g>
    <g id="Group_556" data-name="Group 556" transform="translate(624.326 507.695)">
      <g id="Group_555" data-name="Group 555" style="isolation: isolate">
        <g id="Group_552" data-name="Group 552" transform="translate(0 126.532)">
          <path id="Path_735" data-name="Path 735" d="M730.1,787.719l-98.931-57.492.031,10.889,98.931,57.492Z" transform="translate(-631.166 -730.227)" fill="#bbbcbb"/>
        </g>
        <g id="Group_553" data-name="Group 553">
          <path id="Path_736" data-name="Path 736" d="M949.953,620.106l-98.931-57.492L631.166,689.147,730.1,746.638Z" transform="translate(-631.166 -562.615)" fill="#eaeaea"/>
        </g>
        <g id="Group_554" data-name="Group 554" transform="translate(98.931 57.492)">
          <path id="Path_737" data-name="Path 737" d="M762.216,765.3l.031,10.889L982.1,649.664l-.031-10.892Z" transform="translate(-762.216 -638.772)" fill="#c6c6c6"/>
        </g>
      </g>
    </g>
    <path id="Path_738" data-name="Path 738" d="M904.413,667.889l3.863,3-83.893,49.4-3.049-4.764Z" transform="translate(-53.448 -80.721)" fill="#f5f5f5"/>
    <g id="Group_562" data-name="Group 562" transform="translate(770.469 338.538)">
      <g id="Group_561" data-name="Group 561" transform="translate(0)">
        <g id="Group_560" data-name="Group 560" style="isolation: isolate">
          <g id="Group_557" data-name="Group 557" transform="translate(0 6.311)">
            <path id="Path_739" data-name="Path 739" d="M861.855,368.457l-37.1-21.559.556,195.752,37.1,21.559Z" transform="translate(-824.756 -346.898)" fill="#a5a5a5"/>
          </g>
          <g id="Group_558" data-name="Group 558">
            <path id="Path_740" data-name="Path 740" d="M920.488,360.1l-37.1-21.559-58.634,6.311,37.1,21.559Z" transform="translate(-824.756 -338.538)" fill="#e0e0e0"/>
          </g>
          <g id="Group_559" data-name="Group 559" transform="translate(37.099 21.559)">
            <path id="Path_741" data-name="Path 741" d="M873.9,373.408l.556,195.752,58.555-33.807L932.533,367.1Z" transform="translate(-873.899 -367.097)" fill="#c6c6c6"/>
          </g>
        </g>
      </g>
    </g>
    <g id="Group_567" data-name="Group 567" transform="translate(693.439 434.103)">
      <g id="Group_566" data-name="Group 566" style="isolation: isolate">
        <g id="Group_563" data-name="Group 563" transform="translate(0 49.001)">
          <path id="Path_742" data-name="Path 742" d="M796.915,573.158l-74.2-43.118L723,641.407l74.2,43.119Z" transform="translate(-722.717 -530.039)" fill="#a5a5a5"/>
        </g>
        <g id="Group_564" data-name="Group 564">
          <path id="Path_743" data-name="Path 743" d="M881.785,508.25l-74.2-43.12-84.87,49,74.2,43.118Z" transform="translate(-722.717 -465.13)" fill="#f5f5f5"/>
        </g>
        <g id="Group_565" data-name="Group 565" transform="translate(74.198 43.12)">
          <path id="Path_744" data-name="Path 744" d="M821,571.248l.278,111.368,84.87-49-.279-111.366Z" transform="translate(-821.005 -522.249)" fill="#e6e6e6"/>
        </g>
      </g>
    </g>
    <g id="Group_568" data-name="Group 568" transform="translate(769.9 483.478)">
      <path id="Path_745" data-name="Path 745" d="M824.43,578.575,824,659.725l82.837-49.878-.21-79.312Z" transform="translate(-824.002 -530.535)" fill="#f77e0b"/>
    </g>
    <g id="Group_569" data-name="Group 569" transform="translate(769.972 566.666)">
      <path id="Path_746" data-name="Path 746" d="M824.1,688.67l.061,21.807,83.034-47.941-.062-21.8Z" transform="translate(-824.097 -640.732)" fill="#f77e0b"/>
    </g>
    <g id="Group_574" data-name="Group 574" transform="translate(709.626 434.884)">
      <g id="Group_573" data-name="Group 573" style="isolation: isolate">
        <g id="Group_570" data-name="Group 570" transform="translate(0 38.476)">
          <path id="Path_747" data-name="Path 747" d="M805.99,553.066l-61.831-35.934.023,8.11,61.831,35.932Z" transform="translate(-744.159 -517.132)" fill="#979797"/>
        </g>
        <g id="Group_571" data-name="Group 571">
          <path id="Path_748" data-name="Path 748" d="M872.634,502.1,810.8,466.164,744.159,504.64l61.831,35.934Z" transform="translate(-744.159 -466.164)" fill="#adadad"/>
        </g>
        <g id="Group_572" data-name="Group 572" transform="translate(61.831 35.933)">
          <path id="Path_749" data-name="Path 749" d="M826.064,552.24l.023,8.109,66.645-38.476-.023-8.109Z" transform="translate(-826.064 -513.764)" fill="#c9c9c9"/>
        </g>
      </g>
    </g>
    <g id="Group_581" data-name="Group 581" transform="translate(694.693 384.564)">
      <g id="Group_579" data-name="Group 579" transform="translate(0)">
        <g id="Group_578" data-name="Group 578" style="isolation: isolate">
          <g id="Group_575" data-name="Group 575" transform="translate(0 43.935)">
            <path id="Path_750" data-name="Path 750" d="M798.577,500.826l-74.2-43.12.119,41.541,74.2,43.118Z" transform="translate(-724.378 -457.706)" fill="#a5a5a5"/>
          </g>
          <g id="Group_576" data-name="Group 576">
            <path id="Path_751" data-name="Path 751" d="M874.675,442.626l-74.2-43.12-76.1,43.935,74.2,43.12Z" transform="translate(-724.378 -399.507)" fill="#e8e8e8"/>
          </g>
          <g id="Group_577" data-name="Group 577" transform="translate(74.199 43.12)">
            <path id="Path_752" data-name="Path 752" d="M822.667,500.561l.117,41.539,76.1-43.935-.117-41.539Z" transform="translate(-822.667 -456.626)" fill="#e6e6e6"/>
          </g>
        </g>
      </g>
      <g id="Group_580" data-name="Group 580" transform="translate(76.896 46.255)">
        <path id="Path_753" data-name="Path 753" d="M826.24,502.407l.106,37.574,72.1-41.626-.106-37.575Z" transform="translate(-826.24 -460.78)" fill="#ffa62c"/>
      </g>
    </g>
    <g id="Group_589" data-name="Group 589" transform="translate(767.674 583.633)">
      <g id="Group_588" data-name="Group 588" style="isolation: isolate">
        <g id="Group_582" data-name="Group 582" transform="translate(55.845 4.989)">
          <path id="Path_754" data-name="Path 754" d="M931.136,671.972l-3.711-2.157-32.4,18.7,3.709,2.157Z" transform="translate(-895.029 -669.815)" fill="#d1d1d1"/>
        </g>
        <g id="Group_583" data-name="Group 583" transform="translate(32.34 13.537)">
          <path id="Path_755" data-name="Path 755" d="M867.6,683.294l-3.71-2.154.058,23.693,3.71,2.157Z" transform="translate(-863.894 -681.14)" fill="#a8a8a8"/>
        </g>
        <g id="Group_584" data-name="Group 584" transform="translate(32.34)">
          <path id="Path_756" data-name="Path 756" d="M891.05,665.364l-3.71-2.157-23.447,13.537,3.71,2.154Z" transform="translate(-863.894 -663.207)" fill="#d1d1d1"/>
        </g>
        <g id="Group_585" data-name="Group 585" transform="translate(0 55.935)">
          <path id="Path_757" data-name="Path 757" d="M824.763,739.459l-3.71-2.157.01,3.849,3.71,2.157Z" transform="translate(-821.054 -737.302)" fill="#7b7b7b"/>
        </g>
        <g id="Group_586" data-name="Group 586" transform="translate(0 37.231)">
          <path id="Path_758" data-name="Path 758" d="M857.161,714.682l-3.71-2.157-32.4,18.7,3.71,2.157Z" transform="translate(-821.054 -712.525)" fill="#d1d1d1"/>
        </g>
        <g id="Group_587" data-name="Group 587" transform="translate(3.71 2.157)">
          <path id="Path_759" data-name="Path 759" d="M858.308,679.6l.058,23.7-32.4,18.7.01,3.849L914.22,674.9l-.01-3.849-32.4,18.7-.058-23.693Z" transform="translate(-825.968 -666.064)" fill="#b8b8b8"/>
        </g>
      </g>
    </g>
    <g id="Group_596" data-name="Group 596" transform="translate(803.337 595.042)">
      <g id="Group_594" data-name="Group 594" transform="translate(0 17.258)">
        <g id="Group_593" data-name="Group 593" style="isolation: isolate">
          <g id="Group_590" data-name="Group 590" transform="translate(0 14.202)">
            <path id="Path_760" data-name="Path 760" d="M873.968,723.29l-5.673-3.3,0,1.464,5.674,3.3Z" transform="translate(-868.295 -719.993)" fill="#b1b1b1"/>
          </g>
          <g id="Group_591" data-name="Group 591">
            <path id="Path_761" data-name="Path 761" d="M898.566,704.478l-5.674-3.3-24.6,14.2,5.673,3.3Z" transform="translate(-868.295 -701.181)" fill="#c6c6c6"/>
          </g>
          <g id="Group_592" data-name="Group 592" transform="translate(5.673 3.297)">
            <path id="Path_762" data-name="Path 762" d="M875.81,719.749l0,1.464,24.6-14.2,0-1.464Z" transform="translate(-875.81 -705.548)" fill="#a8a8a8"/>
          </g>
        </g>
      </g>
      <g id="Group_595" data-name="Group 595" transform="translate(2.658)">
        <path id="Path_763" data-name="Path 763" d="M871.815,689.715l.052,18.6L891.6,696.925l-.052-18.605Z" transform="translate(-871.815 -678.319)" fill="#ffa62c"/>
      </g>
    </g>
    <g id="Group_601" data-name="Group 601" transform="translate(803.652 585.721)">
      <g id="Group_600" data-name="Group 600" transform="translate(0 0)" style="isolation: isolate">
        <g id="Group_597" data-name="Group 597" transform="translate(0 13.545)">
          <path id="Path_764" data-name="Path 764" d="M872.422,686.07l-3.71-2.155.012,3.887,3.71,2.154Z" transform="translate(-868.713 -683.915)" fill="#a8a8a8"/>
        </g>
        <g id="Group_598" data-name="Group 598">
          <path id="Path_765" data-name="Path 765" d="M895.88,668.13l-3.71-2.157-23.458,13.545,3.71,2.155Z" transform="translate(-868.713 -665.973)" fill="#d1d1d1"/>
        </g>
        <g id="Group_599" data-name="Group 599" transform="translate(3.71 2.157)">
          <path id="Path_766" data-name="Path 766" d="M873.627,682.373l.012,3.887L897.1,672.717l-.012-3.887Z" transform="translate(-873.627 -668.83)" fill="#b8b8b8"/>
        </g>
      </g>
    </g>
    <g id="Group_607" data-name="Group 607" transform="translate(636.324 380.898)">
      <g id="Group_606" data-name="Group 606" transform="translate(0)">
        <g id="Group_605" data-name="Group 605" style="isolation: isolate">
          <g id="Group_602" data-name="Group 602">
            <path id="Path_767" data-name="Path 767" d="M742.638,416.21l-37.1-21.559-58.481,64.141,37.1,21.559Z" transform="translate(-647.058 -394.65)" fill="#e0e0e0"/>
          </g>
          <g id="Group_603" data-name="Group 603" transform="translate(0 64.141)">
            <path id="Path_768" data-name="Path 768" d="M684.157,501.175l-37.1-21.559.527,185.57,37.1,21.559Z" transform="translate(-647.058 -479.616)" fill="#a5a5a5"/>
          </g>
          <g id="Group_604" data-name="Group 604" transform="translate(37.099 21.559)">
            <path id="Path_769" data-name="Path 769" d="M754.682,423.209,696.2,487.35l.526,185.57,58.566-33.814Z" transform="translate(-696.202 -423.209)" fill="#c6c6c6"/>
          </g>
        </g>
      </g>
    </g>
    <g id="Group_612" data-name="Group 612" transform="translate(728.614 614.845)">
      <g id="Group_611" data-name="Group 611" transform="translate(0)" style="isolation: isolate">
        <g id="Group_608" data-name="Group 608" transform="translate(42.802 24.723)">
          <path id="Path_770" data-name="Path 770" d="M826.02,739.459l3.711-2.157-.011,3.849-3.71,2.157Z" transform="translate(-826.01 -737.302)" fill="#b8b8b8"/>
        </g>
        <g id="Group_609" data-name="Group 609" transform="translate(0.01)">
          <path id="Path_771" data-name="Path 771" d="M769.326,706.71l3.711-2.157,42.8,24.723-3.711,2.157Z" transform="translate(-769.326 -704.553)" fill="#d1d1d1"/>
        </g>
        <g id="Group_610" data-name="Group 610" transform="translate(0 2.157)">
          <path id="Path_772" data-name="Path 772" d="M812.124,732.133l-.01,3.849-42.8-24.723.01-3.849Z" transform="translate(-769.312 -707.41)" fill="#a8a8a8"/>
        </g>
      </g>
    </g>
  </g>
</svg>
