<svg xmlns="http://www.w3.org/2000/svg" width="15.825" height="11.869" viewBox="0 0 15.825 11.869">
  <path id="Path_4190" data-name="Path 4190" d="M154.995,252.984v-9.458c.048-.012.037-.058.046-.089a1.482,1.482,0,0,1,1.484-1.117q6.382,0,12.765,0a1.48,1.48,0,0,1,1.53,1.529q0,4.4,0,8.809a1.611,1.611,0,0,1-.049.412,1.482,1.482,0,0,1-1.5,1.118H156.433a1.491,1.491,0,0,1-1.379-1.071C155.04,253.071,155.049,253.013,154.995,252.984Zm15.057-8.714-.15.13-6.591,5.711a.524.524,0,0,1-.8,0q-3.314-2.871-6.628-5.741c-.031-.027-.053-.084-.117-.062v.128q0,4.162,0,8.325a.524.524,0,0,0,.6.6h13.093c.41,0,.6-.193.6-.607q0-4.147,0-8.293Zm-13.989-1.1c.07.063.107.1.147.133q3.288,2.851,6.575,5.7c.1.083.15.083.246,0q2.839-2.469,5.684-4.93l1.043-.906Z" transform="translate(-154.995 -242.32)" fill="#505050"/>
</svg>
