<svg xmlns="http://www.w3.org/2000/svg" width="48" height="48" viewBox="0 0 48 48">
  <g id="Group_34949" data-name="Group 34949" transform="translate(-131 -817)">
    <circle id="Ellipse_396" data-name="Ellipse 396" cx="24" cy="24" r="24" transform="translate(131 817)" fill="#505050"/>
    <g id="Group_13169" data-name="Group 13169" transform="translate(142.657 828.657)">
      <path id="Path_4191" data-name="Path 4191" d="M-213.29,233.844a6.919,6.919,0,0,1,2.061-4.74c.38-.39.76-.78,1.155-1.154a2.278,2.278,0,0,1,3.256-.017q1.946,1.883,3.831,3.828a2.219,2.219,0,0,1-.04,3.24c-.693.715-1.409,1.407-2.11,2.114-.314.317-.319.506-.048.866a25.789,25.789,0,0,0,5.646,5.567c.482.343.6.338,1.019-.075.649-.646,1.293-1.3,1.945-1.941a2.247,2.247,0,0,1,3.357-.021q1.874,1.843,3.722,3.712a2.191,2.191,0,0,1,.119,3.175,9.584,9.584,0,0,1-3.2,2.575,6.783,6.783,0,0,1-4.7.332,23.381,23.381,0,0,1-11.081-7.34,22.372,22.372,0,0,1-4.518-7.557A7.425,7.425,0,0,1-213.29,233.844Zm17.786,16.348a5.725,5.725,0,0,0,2.506-.529,8.8,8.8,0,0,0,2.454-2,.913.913,0,0,0,0-1.507q-1.8-1.81-3.6-3.61a.923.923,0,0,0-1.512.009c-.637.64-1.265,1.29-1.9,1.931a1.9,1.9,0,0,1-2.744.212,27.126,27.126,0,0,1-5.943-5.836,1.881,1.881,0,0,1,.177-2.738c.673-.679,1.355-1.35,2.025-2.031a.892.892,0,0,0,.032-1.423q-1.846-1.872-3.718-3.72a.879.879,0,0,0-1.369,0c-.513.5-1.037,1-1.5,1.543a5.2,5.2,0,0,0-1.143,4.8,15.813,15.813,0,0,0,2.34,5.016,23.774,23.774,0,0,0,11.238,9.261A6.78,6.78,0,0,0-195.5,250.192Z" transform="translate(213.291 -227.258)" fill="#fff"/>
    </g>
  </g>
</svg>
