<svg xmlns="http://www.w3.org/2000/svg" width="48" height="48" viewBox="0 0 48 48">
  <g id="Group_34950" data-name="Group 34950" transform="translate(-266 -817)">
    <circle id="Ellipse_396" data-name="Ellipse 396" cx="24" cy="24" r="24" transform="translate(266 817)" fill="#505050"/>
    <path id="Path_4190" data-name="Path 4190" d="M154.995,259.554V244.269c.077-.019.06-.094.075-.143a2.4,2.4,0,0,1,2.4-1.8q10.314,0,20.629,0a2.391,2.391,0,0,1,2.472,2.472q0,7.118,0,14.235a2.6,2.6,0,0,1-.079.666,2.4,2.4,0,0,1-2.419,1.806H157.493c-.058,0-.117,0-.175,0a2.41,2.41,0,0,1-2.229-1.731C155.068,259.694,155.083,259.6,154.995,259.554Zm24.334-14.082-.242.209q-5.326,4.615-10.652,9.229a.846.846,0,0,1-1.3,0q-5.355-4.64-10.711-9.278c-.051-.044-.085-.135-.189-.1v.207q0,6.727,0,13.454a.847.847,0,0,0,.963.964h21.16c.663,0,.971-.312.971-.981q0-6.7,0-13.4ZM156.722,243.7c.112.1.174.16.237.215q5.314,4.607,10.625,9.218c.155.135.242.135.4,0q4.588-3.989,9.185-7.968l1.686-1.464Z" transform="translate(121.976 589.08)" fill="#fff"/>
  </g>
</svg>
