<svg xmlns="http://www.w3.org/2000/svg" width="24" height="24" viewBox="0 0 24 24">
  <g id="Group_35001" data-name="Group 35001" transform="translate(-5435 822)">
    <circle id="Ellipse_471" data-name="Ellipse 471" cx="12" cy="12" r="12" transform="translate(5435 -822)" fill="none"/>
    <g id="Group_34995" data-name="Group 34995" transform="translate(4845.689 -1112.532)">
      <path id="Path_24281" data-name="Path 24281" d="M602.483,294.424c0,.289,0,.578,0,.867a.2.2,0,0,0,.133.221,3.068,3.068,0,0,1,1.579,3.885.412.412,0,0,0,0,.3q1,2.874,2,5.752a.2.2,0,0,0,.234.164c.371-.01.743,0,1.114,0,.228,0,.351.1.349.284s-.126.285-.353.288c-.3,0-.606.007-.908,0-.147,0-.172.027-.121.17.3.846.592,1.7.886,2.545a1.431,1.431,0,0,1-.477,1.747c-.079.067-.067.113-.035.189.155.374.306.749.457,1.124.09.225.045.388-.123.456s-.315-.013-.407-.238q-.233-.571-.461-1.145a.152.152,0,0,0-.176-.119,1.412,1.412,0,0,1-1.473-1.017c-.4-1.159-.809-2.318-1.2-3.48a.287.287,0,0,0-.329-.235c-1.252.011-2.5.008-3.756,0a.225.225,0,0,0-.26.181c-.4,1.162-.8,2.32-1.208,3.478a1.413,1.413,0,0,1-1.516,1.07c-.11,0-.122.06-.15.128q-.232.572-.463,1.144a.35.35,0,0,1-.21.238.272.272,0,0,1-.286-.069.3.3,0,0,1-.052-.344c.157-.388.311-.777.474-1.162a.152.152,0,0,0-.056-.218,1.407,1.407,0,0,1-.484-1.639c.29-.857.591-1.711.888-2.566.083-.239.084-.239-.159-.239-.282,0-.564,0-.846,0-.226,0-.35-.112-.348-.293s.123-.278.354-.279c.371,0,.743,0,1.115,0a.192.192,0,0,0,.224-.149q1-2.9,2.009-5.791a.387.387,0,0,0-.008-.277,3.066,3.066,0,0,1,1.568-3.873.235.235,0,0,0,.147-.254c0-.578-.012-1.156.006-1.734a1.133,1.133,0,0,1,.841-1.053,1.17,1.17,0,0,1,1.494,1.141q0,.4,0,.805Zm-3.624,5.76c-.2.582-.39,1.126-.579,1.669q-1.263,3.63-2.527,7.26a.964.964,0,0,0-.032.625.871.871,0,0,0,.82.609.884.884,0,0,0,.847-.661q1.054-3.028,2.106-6.057c.261-.751.523-1.5.781-2.253.02-.057.1-.135-.029-.181A3.149,3.149,0,0,1,598.86,300.184Zm4.9,0a3.054,3.054,0,0,1-1.28.967c-.161.061-.175.124-.122.276q.795,2.259,1.576,4.523.658,1.894,1.315,3.787a.867.867,0,0,0,1.423.356.857.857,0,0,0,.2-.968q-1-2.864-2-5.727C604.509,302.339,604.141,301.279,603.761,300.184Zm.065-1.893a2.515,2.515,0,1,0-2.509,2.527A2.53,2.53,0,0,0,603.826,298.29Zm-.638,7.315a.282.282,0,0,0-.005-.065q-.707-2.041-1.414-4.082c-.03-.087-.072-.1-.151-.089a1.853,1.853,0,0,1-.616,0c-.1-.018-.126.03-.155.114q-.69,1.993-1.387,3.982c-.031.089-.046.146.092.146C600.762,305.6,601.973,305.605,603.188,305.605Zm-2.482-11.237c0,.247.005.494,0,.741,0,.12.013.172.155.145a2.539,2.539,0,0,1,.9,0c.134.024.16-.013.158-.142-.007-.48,0-.961,0-1.441a.606.606,0,1,0-1.208,0C600.7,293.9,600.706,294.135,600.706,294.368Z" transform="translate(0)" fill="#fff"/>
      <path id="Path_24282" data-name="Path 24282" d="M689.742,376.027a1.414,1.414,0,1,1,1.412-1.416A1.4,1.4,0,0,1,689.742,376.027Zm.842-1.414a.843.843,0,1,0-.854.843A.839.839,0,0,0,690.584,374.613Z" transform="translate(-88.43 -76.311)" fill="#fff"/>
    </g>
  </g>
</svg>
