<svg xmlns="http://www.w3.org/2000/svg" width="24" height="24" viewBox="0 0 24 24">
  <g id="Group_34998" data-name="Group 34998" transform="translate(-5435 899)">
    <circle id="Ellipse_468" data-name="Ellipse 468" cx="12" cy="12" r="12" transform="translate(5435 -899)" fill="none"/>
    <g id="Group_12767" data-name="Group 12767" transform="translate(5439.47 -894.508)">
      <g id="Group_12757" data-name="Group 12757" transform="translate(1.828 1.807)">
        <path id="Path_3765" data-name="Path 3765" d="M308.321,595.161a1.386,1.386,0,0,1-.088-.91h-7.467a1.386,1.386,0,0,1-.088.91Z" transform="translate(-298.799 -583.759)" fill="#505050"/>
        <path id="Path_3766" data-name="Path 3766" d="M295.794,569.5a1.435,1.435,0,0,1-.565-.116v7.576a1.387,1.387,0,0,1,.91-.07v-7.437A1.425,1.425,0,0,1,295.794,569.5Z" transform="translate(-295.229 -567.469)" fill="#505050"/>
        <path id="Path_3767" data-name="Path 3767" d="M308.321,563.836h-7.642a1.385,1.385,0,0,1,.088.91h7.467a1.385,1.385,0,0,1,.088-.91Z" transform="translate(-298.799 -563.836)" fill="#505050"/>
        <path id="Path_3768" data-name="Path 3768" d="M325.989,569.5a1.422,1.422,0,0,1-.345-.046v7.437a1.387,1.387,0,0,1,.91.07v-7.576A1.43,1.43,0,0,1,325.989,569.5Z" transform="translate(-315.152 -567.469)" fill="#505050"/>
      </g>
      <g id="Group_12762" data-name="Group 12762" transform="translate(0 0)">
        <g id="Group_12758" data-name="Group 12758">
          <path id="Path_3769" data-name="Path 3769" d="M292.322,563.386a2.393,2.393,0,1,1,2.393-2.393A2.4,2.4,0,0,1,292.322,563.386Zm0-3.836a1.443,1.443,0,1,0,1.443,1.443A1.444,1.444,0,0,0,292.322,559.55Z" transform="translate(-289.929 -558.599)" fill="#505050"/>
        </g>
        <g id="Group_12759" data-name="Group 12759" transform="translate(10.272)">
          <path id="Path_3770" data-name="Path 3770" d="M322.1,563.386a2.393,2.393,0,1,1,2.394-2.393A2.4,2.4,0,0,1,322.1,563.386Zm0-3.836a1.443,1.443,0,1,0,1.443,1.443A1.444,1.444,0,0,0,322.1,559.55Z" transform="translate(-319.706 -558.599)" fill="#505050"/>
        </g>
        <g id="Group_12760" data-name="Group 12760" transform="translate(0 10.229)">
          <path id="Path_3771" data-name="Path 3771" d="M292.322,593.038a2.393,2.393,0,1,1,2.393-2.393A2.4,2.4,0,0,1,292.322,593.038Zm0-3.836a1.442,1.442,0,1,0,1.443,1.443A1.444,1.444,0,0,0,292.322,589.2Z" transform="translate(-289.929 -588.251)" fill="#505050"/>
        </g>
        <g id="Group_12761" data-name="Group 12761" transform="translate(10.272 10.229)">
          <path id="Path_3772" data-name="Path 3772" d="M322.1,593.038a2.393,2.393,0,1,1,2.394-2.393A2.4,2.4,0,0,1,322.1,593.038Zm0-3.836a1.442,1.442,0,1,0,1.443,1.443A1.444,1.444,0,0,0,322.1,589.2Z" transform="translate(-319.706 -588.251)" fill="#505050"/>
        </g>
      </g>
    </g>
  </g>
</svg>
