<svg xmlns="http://www.w3.org/2000/svg" width="16.825" height="16.677" viewBox="0 0 16.825 16.677">
  <g id="Group_13169" data-name="Group 13169" transform="translate(0)">
    <path id="Path_4191" data-name="Path 4191" d="M-213.29,231.774a4.744,4.744,0,0,1,1.413-3.25c.261-.267.521-.535.792-.791a1.562,1.562,0,0,1,2.232-.012q1.334,1.291,2.627,2.625a1.521,1.521,0,0,1-.028,2.222c-.475.49-.966.965-1.447,1.45-.216.217-.219.347-.033.594a17.683,17.683,0,0,0,3.871,3.817c.33.235.414.232.7-.051.445-.443.887-.89,1.334-1.331a1.541,1.541,0,0,1,2.3-.014q1.285,1.263,2.552,2.545a1.5,1.5,0,0,1,.082,2.177,6.572,6.572,0,0,1-2.193,1.765,4.651,4.651,0,0,1-3.22.228,16.031,16.031,0,0,1-7.6-5.033,15.34,15.34,0,0,1-3.1-5.182A5.091,5.091,0,0,1-213.29,231.774Zm12.2,11.209a3.926,3.926,0,0,0,1.718-.363,6.036,6.036,0,0,0,1.683-1.37.626.626,0,0,0,0-1.033q-1.232-1.241-2.47-2.475a.633.633,0,0,0-1.036.006c-.437.439-.867.884-1.3,1.324a1.306,1.306,0,0,1-1.881.146,18.6,18.6,0,0,1-4.075-4,1.289,1.289,0,0,1,.121-1.877c.462-.465.929-.925,1.389-1.393a.611.611,0,0,0,.022-.976q-1.266-1.284-2.549-2.551a.6.6,0,0,0-.939,0c-.352.343-.711.683-1.026,1.058a3.569,3.569,0,0,0-.784,3.29,10.842,10.842,0,0,0,1.6,3.439,16.3,16.3,0,0,0,7.706,6.35A4.649,4.649,0,0,0-201.095,242.983Z" transform="translate(213.291 -227.258)" fill="#505050"/>
  </g>
</svg>
