<svg id="Component_34_12" data-name="Component 34 – 12" xmlns="http://www.w3.org/2000/svg" width="38.625" height="38.625" viewBox="0 0 38.625 38.625">
  <g id="Path_118" data-name="Path 118" transform="translate(38.625 38.625) rotate(-180)" fill="none">
    <path d="M19.313,0A19.313,19.313,0,1,1,0,19.313,19.312,19.312,0,0,1,19.313,0Z" stroke="none"/>
    <path d="M 19.3125 1.5 C 14.55460929870605 1.5 10.08149909973145 3.352821350097656 6.717159271240234 6.717159271240234 C 3.352821350097656 10.08149909973145 1.5 14.55460929870605 1.5 19.3125 C 1.5 24.07038879394531 3.352821350097656 28.54349899291992 6.717159271240234 31.90784072875977 C 10.08149909973145 35.27217864990234 14.55460929870605 37.125 19.3125 37.125 C 24.07038879394531 37.125 28.54349899291992 35.27217864990234 31.90784072875977 31.90784072875977 C 35.27217864990234 28.54349899291992 37.125 24.07038879394531 37.125 19.3125 C 37.125 14.55460929870605 35.27217864990234 10.08149909973145 31.90784072875977 6.717159271240234 C 28.54349899291992 3.352821350097656 24.07038879394531 1.5 19.3125 1.5 M 19.3125 0 C 29.97850036621094 0 38.625 8.646499633789062 38.625 19.3125 C 38.625 29.97850036621094 29.97850036621094 38.625 19.3125 38.625 C 8.646499633789062 38.625 0 29.97850036621094 0 19.3125 C 0 8.646499633789062 8.646499633789062 0 19.3125 0 Z" stroke="none" fill="#ffffff"/>
  </g>
  <path id="Path_117" data-name="Path 117" d="M0,0,8.6,7.135,0,14.271" transform="translate(16.479 11.527)" fill="none" stroke="#ffffff" stroke-linecap="round" stroke-linejoin="round" stroke-width="1.5"/>
</svg>
