<svg xmlns="http://www.w3.org/2000/svg" width="119.924" height="25.384" viewBox="0 0 119.924 25.384">
  <g id="Group_34995" data-name="Group 34995" transform="translate(-2114 25.384)">
    <g id="Group_19" data-name="Group 19" transform="translate(2149.004 -19.826)">
      <g id="Group_15" data-name="Group 15" transform="translate(0 2.295)">
        <path id="Path_7" data-name="Path 7" d="M284.217,416.743v-5.855a3.217,3.217,0,0,1,1.288-2.852,7.43,7.43,0,0,1,4.139-.891H291.6a7.429,7.429,0,0,1,4.14.891,3.216,3.216,0,0,1,1.29,2.852v5.855a3.221,3.221,0,0,1-1.29,2.854,7.45,7.45,0,0,1-4.14.891h-1.958a6.81,6.81,0,0,1-3.916-.964,3.4,3.4,0,0,1-1.363-1.8C284.316,417.406,284.265,417.077,284.217,416.743Zm4.663,1.812h3.492a2.586,2.586,0,0,0,1.61-.373,1.62,1.62,0,0,0,.445-1.3v-6.094a1.7,1.7,0,0,0-.434-1.329,2.48,2.48,0,0,0-1.6-.381H288.88a2.643,2.643,0,0,0-1.635.372,1.672,1.672,0,0,0-.445,1.339v6.057a1.649,1.649,0,0,0,.457,1.328A2.588,2.588,0,0,0,288.88,418.556Z" transform="translate(-284.217 -407.001)" fill="#fff"/>
        <path id="Path_8" data-name="Path 8" d="M305.744,417.28v-6.854a2.84,2.84,0,0,1,1.177-2.4,4.763,4.763,0,0,1,2.935-.879h7.5v1.932h-7.15q-1.883,0-1.882,1.406v6.923a1.677,1.677,0,0,0,1.841,1.15h7.142v1.932h-7.686a4.871,4.871,0,0,1-2.239-.575,2.981,2.981,0,0,1-1.642-2.076Z" transform="translate(-288.201 -407.001)" fill="#fff"/>
        <path id="Path_9" data-name="Path 9" d="M325.174,416.911v-6.43a2.812,2.812,0,0,1,1.239-2.522,7.427,7.427,0,0,1,3.962-.814h6.515v1.932h-7.565a2.043,2.043,0,0,0-.908.241,1.284,1.284,0,0,0-.659.87v2.61h9.107v1.932h-9.107v2.616a.832.832,0,0,0,.123.392,1.566,1.566,0,0,0,.842.668,7.817,7.817,0,0,0,1.881.148h6.212v1.932H329.9a5.776,5.776,0,0,1-3.516-.91A3.116,3.116,0,0,1,325.174,416.911Z" transform="translate(-291.796 -407.001)" fill="#fff"/>
        <path id="Path_10" data-name="Path 10" d="M342.745,420.455l5.921-12.1a2.144,2.144,0,0,1,2.006-1.391,3.262,3.262,0,0,1,.855.12,1.666,1.666,0,0,1,.707.38,3.441,3.441,0,0,1,.594.892l5.9,12.1-2.759,0-1.362-2.792h-7.735L345.5,420.46Zm10.92-4.719-2.973-6.053-2.9,6.053Z" transform="translate(-295.048 -406.969)" fill="#fff"/>
        <path id="Path_11" data-name="Path 11" d="M365.98,420.465V409q0-1.982,2.128-1.981h.372c.05,0,.226.029.531.083a1.891,1.891,0,0,1,.831.369,2.8,2.8,0,0,1,.694.879l5.371,9.768V407.128h2.6v11.737a1.521,1.521,0,0,1-.569,1.194,2.483,2.483,0,0,1-1.459.565.9.9,0,0,1-.174.018h-.174a2.412,2.412,0,0,1-2.2-1.343l-5.367-9.6v10.77Z" transform="translate(-299.348 -406.978)" fill="#fff"/>
      </g>
      <g id="Group_18" data-name="Group 18" transform="translate(81.182 0)">
        <g id="Group_16" data-name="Group 16" transform="translate(0)">
          <path id="Path_12" data-name="Path 12" d="M385.7,407.891a1.869,1.869,0,1,1,1.87-1.869A1.871,1.871,0,0,1,385.7,407.891Zm0-3.537a1.668,1.668,0,1,0,1.667,1.668A1.67,1.67,0,0,0,385.7,404.354Z" transform="translate(-383.834 -404.153)" fill="#fff"/>
        </g>
        <g id="Group_17" data-name="Group 17" transform="translate(1.213 0.888)">
          <path id="Path_13" data-name="Path 13" d="M385.6,406.386v.876h-.274v-2.019h.732a.77.77,0,0,1,.507.147.529.529,0,0,1,.175.428.46.46,0,0,1-.081.271.557.557,0,0,1-.236.183.417.417,0,0,1,.24.176.578.578,0,0,1,.072.3v.191a.633.633,0,0,0,.02.169.25.25,0,0,0,.073.122v.033h-.282a.225.225,0,0,1-.069-.139,1.1,1.1,0,0,1-.015-.189v-.184a.367.367,0,0,0-.1-.264.341.341,0,0,0-.258-.1Zm0-.215h.43a.509.509,0,0,0,.334-.088.334.334,0,0,0,.1-.267.348.348,0,0,0-.1-.265.439.439,0,0,0-.309-.093H385.6Z" transform="translate(-385.323 -405.243)" fill="#fff"/>
        </g>
      </g>
    </g>
    <g id="Group_22" data-name="Group 22" transform="translate(2114 -25.384)">
      <g id="Group_20" data-name="Group 20" transform="translate(2.859 3.77)">
        <path id="Path_14" data-name="Path 14" d="M260.041,225.618s-.072.75-.154,1.684a29.646,29.646,0,0,1-2.12,6.8,7.239,7.239,0,0,1-6.376,1.9,6.094,6.094,0,0,1-5.032-5.311,6,6,0,0,1,2.091-5.075,5.888,5.888,0,0,1,7.073-.178,5.671,5.671,0,0,0-5.807-2.389,7.6,7.6,0,0,0-3.812,13.509,9.41,9.41,0,0,0,5.812,2,9.126,9.126,0,0,0,9.277-8.968A8.693,8.693,0,0,0,260.041,225.618Z" transform="translate(-240.495 -216.937)" fill="#fff"/>
        <path id="Path_15" data-name="Path 15" d="M256.182,227.788a3.345,3.345,0,0,1,1.9,5.191,3.619,3.619,0,1,0-5.773-3.71,3.5,3.5,0,0,0-.1.645A3.347,3.347,0,0,1,256.182,227.788Z" transform="translate(-242.967 -217.892)" fill="#fff"/>
        <path id="Path_16" data-name="Path 16" d="M253.173,221.1a8.209,8.209,0,0,1,5.129.459,7.877,7.877,0,0,1,4.488,6.7,6.147,6.147,0,0,1-3.372,5.935,7.634,7.634,0,0,1-5.289.573,5.57,5.57,0,0,1-4.141-4.373c-.434-2.381.837-3.373.837-3.373a5.073,5.073,0,0,0,2.915,5.1,5.26,5.26,0,0,0,4.692-.4,5.037,5.037,0,0,0,1.915-5.843,5.813,5.813,0,0,0-4.316-4.113,8.933,8.933,0,0,0-5.1.268A5.188,5.188,0,0,1,253.173,221.1Z" transform="translate(-242.345 -216.377)" fill="#fff"/>
        <path id="Path_17" data-name="Path 17" d="M240.491,227.572a10.517,10.517,0,1,1,18.872,6.382,11.434,11.434,0,1,0-16.713,0A10.468,10.468,0,0,1,240.491,227.572Z" transform="translate(-239.572 -214.718)" fill="#fff"/>
        <path id="Path_18" data-name="Path 18" d="M250.282,225.09a7.059,7.059,0,0,1,1.073-.431,5.831,5.831,0,0,1,5.435.541,5.67,5.67,0,0,0-4.656-2.042,8.566,8.566,0,0,0-3.382.843A5.388,5.388,0,0,0,250.282,225.09Z" transform="translate(-242.038 -216.985)" fill="#fff" style="mix-blend-mode: screen;isolation: isolate"/>
        <path id="Path_19" data-name="Path 19" d="M261.012,228.723a4.824,4.824,0,0,1-3.329,5.842c-2.667.765-5.4-.72-5.976-2.537l.05.167c.418,1.725,3.165,3.558,6.173,2.634a4.8,4.8,0,0,0,3.134-5.941Z" transform="translate(-242.832 -218.48)" fill="#fff" opacity="0.7" style="mix-blend-mode: screen;isolation: isolate"/>
        <path id="Path_20" data-name="Path 20" d="M253.191,228.222a4.9,4.9,0,0,1,2.622-1.055,4.651,4.651,0,0,1,3.228,1.159,3.483,3.483,0,0,0-5.85-.1Z" transform="translate(-243.23 -217.931)" fill="#fff" style="mix-blend-mode: screen;isolation: isolate"/>
        <path id="Path_21" data-name="Path 21" d="M252.105,216.405a10.047,10.047,0,0,1,8.628,4.261l.072.072c-.317-3.218-4.076-5.757-8.671-5.757-4.249,0-7.784,2.169-8.543,5.039.533-.462,1.067-.91,1.626-1.33A9.983,9.983,0,0,1,252.105,216.405Z" transform="translate(-240.652 -214.789)" fill="#fff" style="mix-blend-mode: screen;isolation: isolate"/>
        <path id="Path_22" data-name="Path 22" d="M259,235.252a6.436,6.436,0,0,1-8.729,1.931c-2.988-1.791-4.226-5.924-2.984-8.105l-.111.2c-1.237,2.054-.66,6.234,3.066,8.384a6.38,6.38,0,0,0,8.645-2.208Z" transform="translate(-241.458 -218.575)" fill="#fff" opacity="0.29" style="mix-blend-mode: screen;isolation: isolate"/>
      </g>
      <g id="Group_21" data-name="Group 21" transform="translate(0 0)">
        <path id="Path_23" data-name="Path 23" d="M237.921,224.62l-2.258-1.4,2.63.386Z" transform="translate(-235.663 -213.231)" fill="#fff"/>
        <path id="Path_24" data-name="Path 24" d="M240.446,219.7l-1.733-2.016,2.394,1.158Z" transform="translate(-236.482 -211.745)" fill="#fff"/>
        <path id="Path_25" data-name="Path 25" d="M244.332,215.76l-1.047-2.443,1.936,1.823Z" transform="translate(-237.71 -210.572)" fill="#fff"/>
        <path id="Path_26" data-name="Path 26" d="M249.221,213.17l-.266-2.645,1.3,2.32Z" transform="translate(-239.233 -209.822)" fill="#fff"/>
        <path id="Path_27" data-name="Path 27" d="M254.463,212.167l.54-2.6.543,2.6Z" transform="translate(-240.713 -209.564)" fill="#fff"/>
        <path id="Path_28" data-name="Path 28" d="M259.678,212.844l1.3-2.321-.263,2.646Z" transform="translate(-242.113 -209.822)" fill="#fff"/>
        <path id="Path_29" data-name="Path 29" d="M264.478,215.136l1.932-1.825-1.045,2.445Z" transform="translate(-243.403 -210.57)" fill="#fff"/>
        <path id="Path_30" data-name="Path 30" d="M268.422,218.835l2.392-1.16-1.73,2.018Z" transform="translate(-244.462 -211.743)" fill="#fff"/>
        <path id="Path_31" data-name="Path 31" d="M271.151,223.6l2.629-.389-2.256,1.405Z" transform="translate(-245.195 -213.229)" fill="#fff"/>
      </g>
    </g>
  </g>
</svg>
