<svg xmlns="http://www.w3.org/2000/svg" width="199.025" height="234.538" viewBox="0 0 199.025 234.538">
  <g id="Group_541" data-name="Group 541" transform="translate(-151.289 -422)">
    <g id="Group_500" data-name="Group 500" transform="translate(151.289 536.877)">
      <g id="Group_499" data-name="Group 499" style="mix-blend-mode: normal;isolation: isolate">
        <g id="Group_496" data-name="Group 496" transform="translate(109.037 62.952)">
          <path id="Path_699" data-name="Path 699" d="M410.185,697.473l-.012,4.423L320.2,754.183l.012-4.421Z" transform="translate(-320.198 -697.473)" fill="#bbbcbb"/>
        </g>
        <g id="Group_497" data-name="Group 497" transform="translate(0 52.288)">
          <path id="Path_700" data-name="Path 700" d="M260.338,743.906l-.012,4.421L151.289,685.376l.014-4.421Z" transform="translate(-151.289 -680.954)" fill="#bbbcbb"/>
        </g>
        <g id="Group_498" data-name="Group 498" transform="translate(0.014)">
          <path id="Path_701" data-name="Path 701" d="M350.321,662.907l-89.975,52.288L151.31,652.243l89.975-52.288Z" transform="translate(-151.31 -599.955)" fill="#ededed"/>
        </g>
      </g>
    </g>
    <g id="Group_540" data-name="Group 540" transform="translate(194.227 422)">
      <path id="Path_702" data-name="Path 702" d="M289.619,696.267l-.026,9.16L217.8,664.414l.026-9.16Z" transform="translate(-217.805 -504.68)" fill="#bfc9d3"/>
      <path id="Path_703" data-name="Path 703" d="M365.51,685.952l-36.473,21.2-.026,9.16,36.5-21.208Z" transform="translate(-257.223 -515.561)" fill="#a7b1ba"/>
      <path id="Path_704" data-name="Path 704" d="M326.106,663.362l-71.738-40.986L217.845,643.6l71.788,41.013,36.473-21.2Z" transform="translate(-217.819 -493.026)" fill="#e4ecf5"/>
      <g id="Group_532" data-name="Group 532" transform="translate(4.928 30.429)">
        <g id="Group_505" data-name="Group 505" transform="translate(0 3.119)">
          <g id="Group_504" data-name="Group 504" style="mix-blend-mode: normal;isolation: isolate">
            <g id="Group_501" data-name="Group 501" transform="translate(5.524 3.19)">
              <path id="Path_705" data-name="Path 705" d="M234.254,500.786,271.9,478.911l-.258,94.791L234,595.577Z" transform="translate(-233.996 -478.911)" fill="#bbbcbb"/>
            </g>
            <g id="Group_502" data-name="Group 502" transform="translate(0.258)">
              <path id="Path_706" data-name="Path 706" d="M225.839,495.844l37.642-21.875,5.524,3.19-37.642,21.875Z" transform="translate(-225.839 -473.969)" fill="#e4ecf5"/>
            </g>
            <g id="Group_503" data-name="Group 503" transform="translate(0 21.875)">
              <path id="Path_707" data-name="Path 707" d="M231.221,511.046l-.258,94.791-5.524-3.19.258-94.791Z" transform="translate(-225.439 -507.856)" fill="#d3d3d3"/>
            </g>
          </g>
        </g>
        <g id="Group_510" data-name="Group 510" transform="translate(6.881 12.272)">
          <g id="Group_509" data-name="Group 509" style="mix-blend-mode: normal;isolation: isolate">
            <g id="Group_506" data-name="Group 506" transform="translate(22.841 13.187)">
              <path id="Path_708" data-name="Path 708" d="M271.735,528.629l34.506-20.053-.255,89.792-34.5,20.053Z" transform="translate(-271.482 -508.576)" fill="#b0b6bd"/>
            </g>
            <g id="Group_507" data-name="Group 507" transform="translate(0.255)">
              <path id="Path_709" data-name="Path 709" d="M236.493,508.2,271,488.148l22.841,13.187-34.506,20.053Z" transform="translate(-236.493 -488.148)" fill="#dfe6ed"/>
            </g>
            <g id="Group_508" data-name="Group 508" transform="translate(0 20.051)">
              <path id="Path_710" data-name="Path 710" d="M259.193,532.4l-.253,89.793L236.1,609l.255-89.794Z" transform="translate(-236.098 -519.209)" fill="#d3d3d3"/>
            </g>
          </g>
        </g>
        <g id="Group_511" data-name="Group 511" transform="translate(8.721 34.68)">
          <path id="Path_711" data-name="Path 711" d="M262.041,536.05l-.246,86.625-22.846-13.19.246-86.625Z" transform="translate(-238.948 -522.859)" fill="#ffb300"/>
        </g>
        <g id="Group_516" data-name="Group 516" transform="translate(7.121 8.056)">
          <g id="Group_515" data-name="Group 515" style="mix-blend-mode: normal;isolation: isolate">
            <g id="Group_512" data-name="Group 512" transform="translate(18.976 10.956)">
              <path id="Path_712" data-name="Path 712" d="M265.877,518.64l34.5-20.051-.012,4.237-34.5,20.053Z" transform="translate(-265.865 -498.589)" fill="#939ba3"/>
            </g>
            <g id="Group_513" data-name="Group 513" transform="translate(0.012)">
              <path id="Path_713" data-name="Path 713" d="M236.488,501.669l34.5-20.053,18.976,10.956-34.5,20.051Z" transform="translate(-236.488 -481.616)" fill="#dfe6ed"/>
            </g>
            <g id="Group_514" data-name="Group 514" transform="translate(0 20.053)">
              <path id="Path_714" data-name="Path 714" d="M255.458,523.635l-.012,4.239-18.976-10.956.012-4.237Z" transform="translate(-236.469 -512.68)" fill="#d3d3d3"/>
            </g>
          </g>
        </g>
        <g id="Group_521" data-name="Group 521" transform="translate(24.343 18.22)">
          <g id="Group_520" data-name="Group 520" style="mix-blend-mode: normal;isolation: isolate">
            <g id="Group_517" data-name="Group 517" transform="translate(5.524 3.19)">
              <path id="Path_715" data-name="Path 715" d="M271.966,524.178l37.64-21.875-.258,93.01-37.642,21.875Z" transform="translate(-271.706 -502.303)" fill="#bbbcbb"/>
            </g>
            <g id="Group_518" data-name="Group 518" transform="translate(0.258)">
              <path id="Path_716" data-name="Path 716" d="M263.549,519.237l37.642-21.875,5.524,3.19-37.641,21.875Z" transform="translate(-263.549 -497.362)" fill="#e4ecf5"/>
            </g>
            <g id="Group_519" data-name="Group 519" transform="translate(0 21.875)">
              <path id="Path_717" data-name="Path 717" d="M268.933,534.438l-.26,93.01-5.524-3.188.258-93.012Z" transform="translate(-263.149 -531.248)" fill="#d3d3d3"/>
            </g>
          </g>
        </g>
        <g id="Group_526" data-name="Group 526" transform="translate(11.659 4.838)">
          <g id="Group_525" data-name="Group 525" style="mix-blend-mode: normal;isolation: isolate">
            <g id="Group_522" data-name="Group 522" transform="translate(17.038 9.837)">
              <path id="Path_718" data-name="Path 718" d="M269.91,508.277,298.14,491.87l-.016,5.3-28.231,16.406Z" transform="translate(-269.894 -491.87)" fill="#9e9e9e"/>
            </g>
            <g id="Group_523" data-name="Group 523" transform="translate(0.016)">
              <path id="Path_719" data-name="Path 719" d="M243.524,493.038l28.231-16.406,17.038,9.837-28.231,16.406Z" transform="translate(-243.524 -476.632)" fill="#2f5679"/>
            </g>
            <g id="Group_524" data-name="Group 524" transform="translate(0 16.406)">
              <path id="Path_720" data-name="Path 720" d="M260.554,511.884l-.016,5.3L243.5,507.343l.016-5.3Z" transform="translate(-243.5 -502.047)" fill="#9e9e9e"/>
            </g>
          </g>
        </g>
        <g id="Group_531" data-name="Group 531" transform="translate(6.027)">
          <g id="Group_530" data-name="Group 530" style="mix-blend-mode: normal;isolation: isolate">
            <g id="Group_527" data-name="Group 527" transform="translate(21.181 12.229)">
              <path id="Path_721" data-name="Path 721" d="M267.593,508.134l34.5-20.053-.005,2.181-34.506,20.053Z" transform="translate(-267.586 -488.081)" fill="#a7b1ba"/>
            </g>
            <g id="Group_528" data-name="Group 528" transform="translate(0.005)">
              <path id="Path_722" data-name="Path 722" d="M234.783,489.19l34.506-20.053,21.181,12.229-34.5,20.053Z" transform="translate(-234.783 -469.137)" fill="#ededed"/>
            </g>
            <g id="Group_529" data-name="Group 529" transform="translate(0 20.053)">
              <path id="Path_723" data-name="Path 723" d="M255.963,512.43l-.007,2.181-21.181-12.229.005-2.181Z" transform="translate(-234.775 -500.2)" fill="#bfc9d3"/>
            </g>
          </g>
        </g>
      </g>
      <g id="Group_539" data-name="Group 539" transform="translate(43.004)">
        <g id="Group_537" data-name="Group 537">
          <g id="Group_536" data-name="Group 536" style="mix-blend-mode: normal;isolation: isolate">
            <g id="Group_533" data-name="Group 533" transform="translate(0.417)">
              <path id="Path_724" data-name="Path 724" d="M285.068,436.71,310.38,422l39.9,43.76-25.311,14.71Z" transform="translate(-285.068 -422)" fill="#ededed"/>
            </g>
            <g id="Group_534" data-name="Group 534" transform="translate(39.955 43.76)">
              <path id="Path_725" data-name="Path 725" d="M346.678,504.5l25.311-14.71-.36,126.6L346.318,631.1Z" transform="translate(-346.318 -489.789)" fill="#bbbcbb"/>
            </g>
            <g id="Group_535" data-name="Group 535" transform="translate(0 14.71)">
              <path id="Path_726" data-name="Path 726" d="M284.84,444.787l39.9,43.76-.36,126.6-39.955-23.069Z" transform="translate(-284.423 -444.787)" fill="#bfc9d3"/>
            </g>
          </g>
        </g>
        <g id="Group_538" data-name="Group 538" transform="translate(2.976 20.654)">
          <path id="Path_727" data-name="Path 727" d="M289.411,453.995l33.984,37.468-.327,115.477-34.034-19.649Z" transform="translate(-289.034 -453.995)" fill="#f77e0b"/>
        </g>
      </g>
    </g>
  </g>
</svg>
