<svg id="services-next" xmlns="http://www.w3.org/2000/svg" width="39" height="39" viewBox="0 0 39 39">
  <g id="Path_118" data-name="Path 118" transform="translate(39 39) rotate(-180)" fill="none">
    <path d="M19.5,0A19.5,19.5,0,1,1,0,19.5,19.5,19.5,0,0,1,19.5,0Z" stroke="none"/>
    <path d="M 19.5 1.5 C 14.69202995300293 1.5 10.17182922363281 3.372329711914062 6.772079467773438 6.772079467773438 C 3.372329711914062 10.17182922363281 1.5 14.69202995300293 1.5 19.5 C 1.5 24.30797958374023 3.372329711914062 28.82817077636719 6.772079467773438 32.22792053222656 C 10.17182922363281 35.62767028808594 14.69202995300293 37.5 19.5 37.5 C 24.30797958374023 37.5 28.82818031311035 35.62767028808594 32.22792053222656 32.22792053222656 C 35.62767028808594 28.82818031311035 37.5 24.30797958374023 37.5 19.5 C 37.5 14.69202995300293 35.62767028808594 10.17182922363281 32.22792053222656 6.772079467773438 C 28.82817077636719 3.372329711914062 24.30797958374023 1.5 19.5 1.5 M 19.5 0 C 30.26955986022949 0 39 8.730449676513672 39 19.5 C 39 30.26955986022949 30.26955986022949 39 19.5 39 C 8.730449676513672 39 0 30.26955986022949 0 19.5 C 0 8.730449676513672 8.730449676513672 0 19.5 0 Z" stroke="none" fill="#9f9f9f"/>
  </g>
  <path id="Path_117" data-name="Path 117" d="M0,0,8.687,7.2,0,14.409" transform="translate(16.64 11.639)" fill="none" stroke="#9f9f9f" stroke-linecap="round" stroke-linejoin="round" stroke-width="1.5"/>
</svg>
