<svg xmlns="http://www.w3.org/2000/svg" width="47.899" height="56.663" viewBox="0 0 47.899 56.663">
  <g id="builder" transform="translate(-7.974 -3.605)">
    <path id="Path_3821" data-name="Path 3821" d="M43.385,36.323A11.488,11.488,0,0,1,54.873,47.812V59.268" fill="none" stroke="#000" stroke-linecap="round" stroke-linejoin="round" stroke-width="2"/>
    <path id="Path_3822" data-name="Path 3822" d="M8.974,59.268V47.812A11.488,11.488,0,0,1,20.462,36.323" fill="none" stroke="#000" stroke-linecap="round" stroke-linejoin="round" stroke-width="2"/>
    <path id="Path_3823" data-name="Path 3823" d="M17.714,59.268V47.8h2.748V36.323h5.726V47.8H37.8V36.323h5.589V47.8h2.964V59.268" fill="none" stroke="#000" stroke-linecap="round" stroke-linejoin="round" stroke-width="2"/>
    <path id="Path_3824" data-name="Path 3824" d="M26.188,36.323,29.6,39.038a3.575,3.575,0,0,0,4.658.034L37.8,36.323" fill="none" stroke="#000" stroke-linecap="round" stroke-linejoin="round" stroke-width="2"/>
    <path id="Path_3825" data-name="Path 3825" d="M23.507,19.348c0,4.709,3.817,12.712,8.526,12.712s8.526-8,8.526-12.712" fill="none" stroke="#000" stroke-linecap="round" stroke-linejoin="round" stroke-width="2"/>
    <path id="Path_3826" data-name="Path 3826" d="M20.4,19.342A11.531,11.531,0,0,1,28.661,8.3" fill="none" stroke="#000" stroke-linecap="round" stroke-linejoin="round" stroke-width="2"/>
    <path id="Path_3827" data-name="Path 3827" d="M35.205,8.267a11.539,11.539,0,0,1,8.356,11.075" fill="none" stroke="#000" stroke-linecap="round" stroke-linejoin="round" stroke-width="2"/>
    <path id="Path_3828" data-name="Path 3828" d="M17.647,22.554h0a3.218,3.218,0,0,1,3.225-3.211h22.24a3.218,3.218,0,0,1,3.225,3.211h0" fill="none" stroke="#000" stroke-linecap="round" stroke-linejoin="round" stroke-width="2"/>
    <path id="Path_3829" data-name="Path 3829" d="M27.5,13.58,28.661,8.3l.812-3.692h4.945l.787,3.662,1.144,5.313" fill="none" stroke="#000" stroke-linecap="round" stroke-linejoin="round" stroke-width="2"/>
    <line id="Line_125" data-name="Line 125" x2="17.052" transform="translate(23.507 54.118)" fill="none" stroke="#000" stroke-linecap="round" stroke-linejoin="round" stroke-width="2"/>
    <line id="Line_126" data-name="Line 126" y2="5.149" transform="translate(23.507 54.118)" fill="none" stroke="#000" stroke-linecap="round" stroke-linejoin="round" stroke-width="2"/>
    <line id="Line_127" data-name="Line 127" y2="5.149" transform="translate(40.559 54.118)" fill="none" stroke="#000" stroke-linecap="round" stroke-linejoin="round" stroke-width="2"/>
  </g>
</svg>
