<svg xmlns="http://www.w3.org/2000/svg" width="70" height="70" viewBox="0 0 70 70">
  <g id="Group_34996" data-name="Group 34996" transform="translate(-415 -11691)">
    <circle id="Ellipse_400" data-name="Ellipse 400" cx="35" cy="35" r="35" transform="translate(415 11691)" fill="#fff"/>
    <path id="safety_clothing" d="M27.971,2h1.824a1.823,1.823,0,0,1,1.824,1.824v9.027a5.671,5.671,0,0,0,4.559,5.561h0A2.37,2.37,0,0,1,38,20.636v10.54M17.029,2H15.206a1.823,1.823,0,0,0-1.824,1.824v9.027a5.671,5.671,0,0,1-4.559,5.561h0A2.37,2.37,0,0,0,7,20.636v10.54M27.971,2H17.029M38,36.647V31.176M34.353,42.118A3.647,3.647,0,0,0,38,38.471V36.647m-31,0v1.824a3.647,3.647,0,0,0,3.647,3.647M7,31.176v5.471m15.5-5.471H38m-15.5,0H7m15.5,5.471H7m31,0H22.5m0,1.824a3.647,3.647,0,0,0,3.647,3.647m-7.294,0A3.647,3.647,0,0,0,22.5,38.471M10.647,42.118h8.206m7.294,0h8.206M22.5,31.176v5.471m0,1.824V36.647m0-13.676v8.206M17.029,2,22.5,22.971m0,0L27.971,2" transform="translate(427.5 11703.5)" fill="none" stroke="#000" stroke-linejoin="round" stroke-width="2"/>
  </g>
</svg>
