<svg xmlns="http://www.w3.org/2000/svg" width="70" height="70" viewBox="0 0 70 70">
  <g id="Group_34997" data-name="Group 34997" transform="translate(-691 -11691)">
    <circle id="Ellipse_397" data-name="Ellipse 397" cx="35" cy="35" r="35" transform="translate(691 11691)" fill="#fff"/>
    <g id="foreman" transform="translate(697.949 11696.642)">
      <path id="Path_3782" data-name="Path 3782" d="M9.05,56.012V46.486A9.554,9.554,0,0,1,18.6,36.933l9.53,19.079,9.53-19.079a9.554,9.554,0,0,1,9.553,9.553v9.526" transform="translate(0 -4.759)" fill="none" stroke="#000" stroke-linecap="round" stroke-linejoin="round" stroke-width="2"/>
      <path id="Path_3783" data-name="Path 3783" d="M23.584,19.958c0,3.916,3.174,10.569,7.09,10.569s7.09-6.654,7.09-10.569" transform="translate(-2.449 -1.899)" fill="none" stroke="#000" stroke-linecap="round" stroke-linejoin="round" stroke-width="2"/>
      <path id="Path_3784" data-name="Path 3784" d="M39.6,36.933H34.952l-2.941,2.286a2.974,2.974,0,0,1-3.874-.028L25.3,36.933H20.539" transform="translate(-1.936 -4.759)" fill="none" stroke="#000" stroke-linecap="round" stroke-linejoin="round" stroke-width="2"/>
      <line id="Line_83" data-name="Line 83" x2="3.394" transform="translate(33.15 47.402)" fill="none" stroke="#000" stroke-linecap="round" stroke-linejoin="round" stroke-width="2"/>
      <line id="Line_84" data-name="Line 84" y2="16.09" transform="translate(28.133 35.163)" fill="none" stroke="#000" stroke-linecap="round" stroke-linejoin="round" stroke-width="2"/>
      <path id="Path_3785" data-name="Path 3785" d="M20.412,18.071a9.59,9.59,0,0,1,6.866-9.184c3.972-1.18,5.252,0,5.252,0" transform="translate(-1.914 -0.003)" fill="none" stroke="#000" stroke-linecap="round" stroke-linejoin="round" stroke-width="2"/>
      <path id="Path_3786" data-name="Path 3786" d="M35.213,8.893A9.6,9.6,0,0,1,42.162,18.1" transform="translate(-4.408 -0.035)" fill="none" stroke="#000" stroke-linecap="round" stroke-linejoin="round" stroke-width="2"/>
      <path id="Path_3787" data-name="Path 3787" d="M20.523,19.969H39.016" transform="translate(-1.636 -1.901)" fill="none" stroke="#000" stroke-linecap="round" stroke-linejoin="round" stroke-width="2"/>
      <line id="Line_85" data-name="Line 85" y2="8.884" transform="translate(16.98 42.369)" fill="none" stroke="#000" stroke-linecap="round" stroke-linejoin="round" stroke-width="2"/>
      <line id="Line_86" data-name="Line 86" y2="8.884" transform="translate(39.336 42.369)" fill="none" stroke="#000" stroke-linecap="round" stroke-linejoin="round" stroke-width="2"/>
    </g>
  </g>
</svg>
