<svg xmlns="http://www.w3.org/2000/svg" width="47.9" height="53.223" viewBox="0 0 47.9 53.223">
  <g id="foreman" transform="translate(-8.05 -7.655)">
    <path id="Path_3782" data-name="Path 3782" d="M9.05,59.878V48.422A11.489,11.489,0,0,1,20.539,36.933L32,59.878,43.461,36.933A11.489,11.489,0,0,1,54.95,48.422V59.878" fill="none" stroke="#000" stroke-linecap="round" stroke-linejoin="round" stroke-width="2"/>
    <path id="Path_3783" data-name="Path 3783" d="M23.584,19.958c0,4.709,3.817,12.711,8.526,12.711s8.526-8,8.526-12.711" fill="none" stroke="#000" stroke-linecap="round" stroke-linejoin="round" stroke-width="2"/>
    <path id="Path_3784" data-name="Path 3784" d="M43.461,36.933H37.872l-3.537,2.749a3.576,3.576,0,0,1-4.659-.034l-3.411-2.715H20.539" fill="none" stroke="#000" stroke-linecap="round" stroke-linejoin="round" stroke-width="2"/>
    <line id="Line_83" data-name="Line 83" x2="4.082" transform="translate(38.033 55.247)" fill="none" stroke="#000" stroke-linecap="round" stroke-linejoin="round" stroke-width="2"/>
    <line id="Line_84" data-name="Line 84" y2="19.35" transform="translate(32 40.527)" fill="none" stroke="#000" stroke-linecap="round" stroke-linejoin="round" stroke-width="2"/>
    <path id="Path_3785" data-name="Path 3785" d="M20.412,19.968A11.533,11.533,0,0,1,28.669,8.923" fill="none" stroke="#000" stroke-linecap="round" stroke-linejoin="round" stroke-width="2"/>
    <path id="Path_3786" data-name="Path 3786" d="M35.213,8.893A11.54,11.54,0,0,1,43.57,19.968" fill="none" stroke="#000" stroke-linecap="round" stroke-linejoin="round" stroke-width="2"/>
    <path id="Path_3787" data-name="Path 3787" d="M17.655,23.18h0a3.218,3.218,0,0,1,3.225-3.211H43.12a3.218,3.218,0,0,1,3.225,3.211h0" fill="none" stroke="#000" stroke-linecap="round" stroke-linejoin="round" stroke-width="2"/>
    <line id="Line_85" data-name="Line 85" y2="10.684" transform="translate(18.587 49.194)" fill="none" stroke="#000" stroke-linecap="round" stroke-linejoin="round" stroke-width="2"/>
    <line id="Line_86" data-name="Line 86" y2="10.684" transform="translate(45.472 49.194)" fill="none" stroke="#000" stroke-linecap="round" stroke-linejoin="round" stroke-width="2"/>
  </g>
</svg>
