<svg xmlns="http://www.w3.org/2000/svg" width="36" height="36" viewBox="0 0 36 36">
  <g id="Group_35002" data-name="Group 35002" transform="translate(-198 -6672)">
    <path id="Path_1" data-name="Path 1" d="M326.013,70.093a10.305,10.305,0,0,1-2.515.717c.4-.067,1-.8,1.236-1.1a4.625,4.625,0,0,0,.834-1.522c.022-.044.037-.1,0-.131a.144.144,0,0,0-.134.011,12.84,12.84,0,0,1-2.981,1.141.2.2,0,0,1-.206-.055,2.357,2.357,0,0,0-.26-.267,5.274,5.274,0,0,0-1.444-.884,5.028,5.028,0,0,0-2.215-.357,5.285,5.285,0,0,0-2.1.594,5.408,5.408,0,0,0-1.695,1.384,5.194,5.194,0,0,0-1.012,2.027,5.466,5.466,0,0,0-.053,2.141c.016.12,0,.136-.1.12A15.93,15.93,0,0,1,303.116,68.7c-.118-.137-.184-.137-.282.009a5.2,5.2,0,0,0,.885,6.138c.2.19.407.38.63.553a5.22,5.22,0,0,1-1.977-.553c-.12-.076-.179-.033-.19.1a3.159,3.159,0,0,0,.033.586,5.252,5.252,0,0,0,3.237,4.188,3.028,3.028,0,0,0,.658.2,5.854,5.854,0,0,1-1.939.059c-.142-.026-.195.044-.142.179a5.456,5.456,0,0,0,4.074,3.411c.184.033.369.033.555.076-.011.016-.023.016-.033.033-.458.7-2.044,1.216-2.783,1.473a9.952,9.952,0,0,1-4.223.541c-.228-.033-.276-.031-.337,0s-.008.094.065.151c.287.19.58.359.879.522a13.98,13.98,0,0,0,2.823,1.13,15.044,15.044,0,0,0,14.6-3.414c2.992-2.975,4.041-7.075,4.041-11.18,0-.161.19-.249.3-.334a9.921,9.921,0,0,0,1.988-2.067.634.634,0,0,0,.131-.4v-.022C326.114,70.028,326.113,70.048,326.013,70.093Z" transform="translate(-97.253 6613.773)" fill="#fff" opacity="0.5"/>
    <circle id="Ellipse_469" data-name="Ellipse 469" cx="18" cy="18" r="18" transform="translate(198 6672)" fill="none"/>
  </g>
</svg>
