<svg xmlns="http://www.w3.org/2000/svg" width="36" height="36" viewBox="0 0 36 36">
  <g id="Group_35004" data-name="Group 35004" transform="translate(-319 -6672)">
    <path id="Path_2" data-name="Path 2" d="M284.987,116.905a5.834,5.834,0,0,0-5.834-5.834H264.234a5.834,5.834,0,0,0-5.834,5.834v6.942a5.834,5.834,0,0,0,5.834,5.834h14.918a5.834,5.834,0,0,0,5.834-5.834Zm-8.774,3.991-6.69,3.31c-.263.141-1.153-.048-1.153-.346v-6.795c0-.3.9-.492,1.162-.342l6.4,3.485C276.2,120.361,276.486,120.75,276.213,120.9Z" transform="translate(65.6 6569.929)" fill="#fff" opacity="0.5"/>
    <circle id="Ellipse_467" data-name="Ellipse 467" cx="18" cy="18" r="18" transform="translate(319 6672)" fill="none"/>
  </g>
</svg>
