<svg xmlns="http://www.w3.org/2000/svg" width="70" height="70" viewBox="0 0 70 70">
  <g id="Group_34998" data-name="Group 34998" transform="translate(-967 -11691)">
    <circle id="Ellipse_401" data-name="Ellipse 401" cx="35" cy="35" r="35" transform="translate(967 11691)" fill="#fff"/>
    <g id="Group_12777" data-name="Group 12777" transform="translate(557 11613.707)">
      <g id="gear" transform="translate(429.578 96.844)">
        <path id="Path_3847" data-name="Path 3847" d="M452.314,133.313H446a.631.631,0,0,1-.632-.632v-1.829a13.155,13.155,0,0,1-2.51-1.039l-1.293,1.293a.632.632,0,0,1-.893,0l-4.465-4.465a.631.631,0,0,1,0-.893l1.293-1.293a13.194,13.194,0,0,1-1.039-2.51h-1.829a.631.631,0,0,1-.632-.632V115a.631.631,0,0,1,.632-.632h1.829a13.194,13.194,0,0,1,1.039-2.51l-1.293-1.293a.631.631,0,0,1,0-.893l4.465-4.465a.632.632,0,0,1,.893,0l1.293,1.293a13.119,13.119,0,0,1,2.51-1.039v-1.829A.631.631,0,0,1,446,103h6.315a.631.631,0,0,1,.632.632v1.829a13.119,13.119,0,0,1,2.51,1.039l1.293-1.293a.632.632,0,0,1,.893,0l4.465,4.465a.631.631,0,0,1,0,.893l-1.293,1.293a13.2,13.2,0,0,1,1.039,2.51h1.829a.631.631,0,0,1,.632.632v6.315a.631.631,0,0,1-.632.632h-1.829a13.2,13.2,0,0,1-1.039,2.51l1.293,1.293a.631.631,0,0,1,0,.893l-4.465,4.465a.632.632,0,0,1-.893,0l-1.293-1.293a13.152,13.152,0,0,1-2.51,1.039v1.829A.631.631,0,0,1,452.314,133.313Zm-5.684-1.263h5.052v-1.677a.632.632,0,0,1,.474-.611,11.9,11.9,0,0,0,3.085-1.277.632.632,0,0,1,.768.1l1.185,1.185,3.573-3.572-1.185-1.185a.632.632,0,0,1-.1-.767,11.962,11.962,0,0,0,1.278-3.086.631.631,0,0,1,.611-.474h1.677V115.63h-1.677a.631.631,0,0,1-.611-.474,11.962,11.962,0,0,0-1.278-3.086.632.632,0,0,1,.1-.767l1.185-1.185-3.573-3.572-1.185,1.185a.631.631,0,0,1-.768.1,11.886,11.886,0,0,0-3.085-1.277.632.632,0,0,1-.474-.611v-1.677H446.63v1.677a.632.632,0,0,1-.474.611,11.886,11.886,0,0,0-3.085,1.277.631.631,0,0,1-.768-.1l-1.185-1.185-3.572,3.572,1.185,1.185a.632.632,0,0,1,.1.767,11.965,11.965,0,0,0-1.278,3.086.631.631,0,0,1-.611.474h-1.677v5.052h1.677a.631.631,0,0,1,.611.474,11.964,11.964,0,0,0,1.278,3.086.632.632,0,0,1-.1.767l-1.185,1.185,3.572,3.572,1.185-1.185a.633.633,0,0,1,.768-.1,11.9,11.9,0,0,0,3.085,1.277.632.632,0,0,1,.474.611Zm2.526-5.684a8.21,8.21,0,1,1,8.21-8.21A8.219,8.219,0,0,1,449.156,126.366Zm0-15.156a6.947,6.947,0,1,0,6.947,6.947A6.955,6.955,0,0,0,449.156,111.21Z" transform="translate(-434 -103)"/>
      </g>
      <g id="Group_12776" data-name="Group 12776" transform="translate(422 86.293)">
        <path id="Path_3848" data-name="Path 3848" d="M441.392,132.364l-.893.893,1.955,1.955a21.469,21.469,0,0,1-.877-42.584V91.355a22.729,22.729,0,0,0,1.1,45.145l-2.179,2.179.893.893,3.158-3.158a.631.631,0,0,0,0-.893Z" transform="translate(-422 -88.158)"/>
        <path id="Path_3849" data-name="Path 3849" d="M459.1,89.326l2.14-2.14-.893-.893-3.158,3.158a.631.631,0,0,0,0,.893l3.158,3.158.893-.893L459.224,90.6a21.464,21.464,0,0,1,.933,42.721v1.272A22.726,22.726,0,0,0,459.1,89.326Z" transform="translate(-434.897 -86.293)"/>
      </g>
    </g>
  </g>
</svg>
