<svg xmlns="http://www.w3.org/2000/svg" width="56.462" height="57.268" viewBox="0 0 56.462 57.268">
  <g id="paint_roller" data-name="paint roller" transform="translate(-3.562 -3.569)">
    <rect id="Rectangle_3397" data-name="Rectangle 3397" width="12.38" height="36.231" transform="translate(18.599 20.056) rotate(-45)" fill="none" stroke="#000" stroke-linecap="round" stroke-linejoin="round" stroke-width="2"/>
    <path id="Path_3774" data-name="Path 3774" d="M16.935,47.347l5.491-5.492a5.392,5.392,0,0,0-.013-7.626L12.83,24.646a5.393,5.393,0,0,1-.013-7.626l5.75-5.75,1.377,1.378" fill="none" stroke="#000" stroke-linecap="round" stroke-linejoin="round" stroke-width="2"/>
    <rect id="Rectangle_3398" data-name="Rectangle 3398" width="13.968" height="6.054" transform="translate(4.976 55.142) rotate(-45)" fill="none" stroke="#000" stroke-linecap="round" stroke-linejoin="round" stroke-width="2"/>
    <path id="Path_3775" data-name="Path 3775" d="M50,39.894l2.334,2.334-2.808,2.808L47.191,42.7" fill="none" stroke="#000" stroke-linecap="round" stroke-linejoin="round" stroke-width="2"/>
    <path id="Path_3776" data-name="Path 3776" d="M24.38,14.275,22.045,11.94l-2.808,2.808,2.334,2.334" fill="none" stroke="#000" stroke-linecap="round" stroke-linejoin="round" stroke-width="2"/>
    <path id="Path_3777" data-name="Path 3777" d="M51.035,34.984,58.219,27.8a2.44,2.44,0,0,0,.178-3.438h0a2.441,2.441,0,0,0-3.438.178l-1.3,1.3a2.981,2.981,0,0,1-4.2.218h0a2.98,2.98,0,0,1,.217-4.2L55.1,16.438a3.842,3.842,0,0,0,.281-5.411h0a3.842,3.842,0,0,0-5.411.281l-2.448,2.447a2.406,2.406,0,0,1-3.39.176l-.669-.669a2.406,2.406,0,0,1,.176-3.39h0a3.263,3.263,0,0,0,.467-1.21,3.387,3.387,0,0,0-1.029-2.918l-.21-.21a3.307,3.307,0,0,0-1.851-.923,3.344,3.344,0,0,0-2.847,1l-8.254,8.255" fill="none" stroke="#000" stroke-linecap="round" stroke-linejoin="round" stroke-width="2"/>
  </g>
</svg>
