<svg xmlns="http://www.w3.org/2000/svg" width="53.841" height="58.512" viewBox="0 0 53.841 58.512">
  <g id="hammerbor" transform="translate(-5.063 -3.208)">
    <path id="Rectangle_3402" data-name="Rectangle 3402" d="M0,0H22.275a0,0,0,0,1,0,0V15.869a6.406,6.406,0,0,1-6.406,6.406H6.406A6.406,6.406,0,0,1,0,15.869V0A0,0,0,0,1,0,0Z" transform="translate(20.862 4.207)" fill="none" stroke="#000" stroke-linecap="round" stroke-linejoin="round" stroke-width="2"/>
    <path id="Rectangle_3403" data-name="Rectangle 3403" d="M0,0H15.882a0,0,0,0,1,0,0V8.115A3.987,3.987,0,0,1,11.895,12.1H3.987A3.987,3.987,0,0,1,0,8.115V0A0,0,0,0,1,0,0Z" transform="translate(24.092 26.482)" fill="none" stroke="#000" stroke-linecap="round" stroke-linejoin="round" stroke-width="2"/>
    <rect id="Rectangle_3404" data-name="Rectangle 3404" width="6.056" height="11.683" transform="translate(29.005 38.584)" fill="none" stroke="#000" stroke-linecap="round" stroke-linejoin="round" stroke-width="2"/>
    <line id="Line_116" data-name="Line 116" x1="0.033" y2="10.45" transform="translate(32 50.267)" fill="none" stroke="#000" stroke-linecap="round" stroke-linejoin="round" stroke-width="2"/>
    <line id="Line_117" data-name="Line 117" x1="5.009" transform="translate(15.853 9.889)" fill="none" stroke="#000" stroke-linecap="round" stroke-linejoin="round" stroke-width="2"/>
    <rect id="Rectangle_3405" data-name="Rectangle 3405" width="9.79" height="3.891" transform="translate(6.063 7.943)" fill="none" stroke="#000" stroke-linecap="round" stroke-linejoin="round" stroke-width="2"/>
    <line id="Line_118" data-name="Line 118" x2="4.999" transform="translate(43.138 9.889)" fill="none" stroke="#000" stroke-linecap="round" stroke-linejoin="round" stroke-width="2"/>
    <rect id="Rectangle_3406" data-name="Rectangle 3406" width="9.769" height="3.891" transform="translate(57.905 11.834) rotate(180)" fill="none" stroke="#000" stroke-linecap="round" stroke-linejoin="round" stroke-width="2"/>
    <line id="Line_119" data-name="Line 119" y2="9.847" transform="translate(25.989 4.207)" fill="none" stroke="#000" stroke-linecap="round" stroke-linejoin="round" stroke-width="2"/>
    <line id="Line_120" data-name="Line 120" y2="9.847" transform="translate(37.976 4.207)" fill="none" stroke="#000" stroke-linecap="round" stroke-linejoin="round" stroke-width="2"/>
    <line id="Line_121" data-name="Line 121" y2="5.681" transform="translate(31.983 4.207)" fill="none" stroke="#000" stroke-linecap="round" stroke-linejoin="round" stroke-width="2"/>
    <line id="Line_122" data-name="Line 122" y2="5.525" transform="translate(28.62 26.482)" fill="none" stroke="#000" stroke-linecap="round" stroke-linejoin="round" stroke-width="2"/>
    <line id="Line_123" data-name="Line 123" y2="5.525" transform="translate(35.346 26.482)" fill="none" stroke="#000" stroke-linecap="round" stroke-linejoin="round" stroke-width="2"/>
    <line id="Line_124" data-name="Line 124" y2="3.188" transform="translate(31.983 26.482)" fill="none" stroke="#000" stroke-linecap="round" stroke-linejoin="round" stroke-width="2"/>
  </g>
</svg>
