<svg xmlns="http://www.w3.org/2000/svg" width="39.73" height="59.874" viewBox="0 0 39.73 59.874">
  <g id="paint" transform="translate(-9.759 -1.72)">
    <rect id="Rectangle_3399" data-name="Rectangle 3399" width="29.679" height="37.359" transform="translate(14.784 23.235)" fill="none" stroke="#000" stroke-linecap="round" stroke-linejoin="round" stroke-width="2"/>
    <path id="Path_3778" data-name="Path 3778" d="M18.685,23.235v7.906a1.99,1.99,0,0,0,1.99,1.99h0a1.989,1.989,0,0,0,1.989-1.99V29.707a2.43,2.43,0,0,1,2.429-2.429h0a2.429,2.429,0,0,1,2.429,2.429v5.969a3.131,3.131,0,0,0,3.131,3.131h0a3.131,3.131,0,0,0,3.131-3.131V32.983a1.961,1.961,0,0,1,1.962-1.962h.817a1.961,1.961,0,0,1,1.961,1.962h0a1.963,1.963,0,0,0,1.962,1.962h1.157a3.061,3.061,0,0,0,2.82-1.872" fill="none" stroke="#000" stroke-linecap="round" stroke-linejoin="round" stroke-width="2"/>
    <path id="Path_3779" data-name="Path 3779" d="M44.462,30.112H48.49v9.925L38.347,49.971H35.506" fill="none" stroke="#000" stroke-linecap="round" stroke-linejoin="round" stroke-width="2"/>
    <rect id="Rectangle_3400" data-name="Rectangle 3400" width="11.805" height="5.215" transform="translate(23.701 47.364)" fill="none" stroke="#000" stroke-linecap="round" stroke-linejoin="round" stroke-width="2"/>
    <line id="Line_79" data-name="Line 79" x1="4.025" transform="translate(10.759 23.235)" fill="none" stroke="#000" stroke-linecap="round" stroke-linejoin="round" stroke-width="2"/>
    <line id="Line_80" data-name="Line 80" x2="4.026" transform="translate(44.463 23.235)" fill="none" stroke="#000" stroke-linecap="round" stroke-linejoin="round" stroke-width="2"/>
    <path id="Path_3780" data-name="Path 3780" d="M42.68,3.676l-6.832,8.161h0a5.652,5.652,0,0,0-6.783,1.5l-.141.169L38.9,21.763l.133-.16a5.651,5.651,0,0,0,.2-6.955l-.02-.027,6.775-8.2a2.148,2.148,0,0,0-.279-3.018h0A2.148,2.148,0,0,0,42.68,3.676Z" fill="none" stroke="#000" stroke-linecap="round" stroke-linejoin="round" stroke-width="2"/>
    <line id="Line_81" data-name="Line 81" x1="1.217" y2="1.472" transform="translate(37.682 21.763)" fill="none" stroke="#000" stroke-linecap="round" stroke-linejoin="round" stroke-width="2"/>
    <line id="Line_82" data-name="Line 82" y1="9.786" x2="8.11" transform="translate(20.814 13.504)" fill="none" stroke="#000" stroke-linecap="round" stroke-linejoin="round" stroke-width="2"/>
    <path id="Path_3781" data-name="Path 3781" d="M14.786,30.112H10.759v9.925L20.9,49.971h2.8" fill="none" stroke="#000" stroke-linecap="round" stroke-linejoin="round" stroke-width="2"/>
  </g>
</svg>
