<svg xmlns="http://www.w3.org/2000/svg" width="55.55" height="55.567" viewBox="0 0 55.55 55.567">
  <g id="Group_12772" data-name="Group 12772" transform="translate(-713.092 -100.208)">
    <path id="Path_3834" data-name="Path 3834" d="M767.34,155.775H714.288a1.529,1.529,0,0,0-.165-.115,1.631,1.631,0,0,1,.718-3.141,6.793,6.793,0,0,1,1.029.008c.519.071.6-.15.6-.618q-.018-24.89-.009-49.778c0-1.542,1-2.282,2.415-1.754q12.809,4.791,25.609,9.6a1.71,1.71,0,0,1,1.266,1.86c0,1.575.021,3.149-.011,4.723a.677.677,0,0,0,.57.782q8.7,2.874,17.393,5.786c1.267.422,1.578.854,1.578,2.175q0,12.946,0,25.894c0,.428-.19,1.012.082,1.241s.825.1,1.252.074a1.815,1.815,0,0,1,2.026,1.31v.76A2.173,2.173,0,0,1,767.34,155.775Zm-48.2-52.818v50.218a.724.724,0,0,1,0,.114c-.057.338.054.459.422.446.834-.032,1.671-.032,2.505,0,.392.015.505-.08.5-.489-.021-2.584-.012-5.168-.01-7.751a1.767,1.767,0,0,1,2.012-2.029q6.521,0,13.042,0a1.766,1.766,0,0,1,2.031,2.01c0,2.565.009,5.13-.009,7.694,0,.417.063.6.539.568a23.293,23.293,0,0,1,2.334,0c.421.017.566-.071.565-.54q-.021-20.376,0-40.753c0-.421-.147-.567-.517-.705q-9.543-3.561-19.077-7.152Zm25.99,16.407v27.681c0,2.063.013,4.126-.011,6.189-.005.418.11.519.513.5.835-.034,1.674-.036,2.508,0,.422.018.5-.115.5-.515-.019-2.666-.012-5.333-.009-8a1.791,1.791,0,0,1,2.015-2.007q3.208-.006,6.418,0a1.81,1.81,0,0,1,2.069,2.071c0,2.667.008,5.333-.008,8,0,.357.079.464.446.45.835-.03,1.673-.037,2.508,0,.456.021.568-.11.567-.566q-.023-13.693,0-27.388a.669.669,0,0,0-.546-.774q-6.051-1.986-12.091-4.01C748.4,120.462,746.788,119.919,745.134,119.364Zm-16.052,29.971c0-1.34-.017-2.681.01-4.02.008-.421-.109-.544-.532-.534-1.164.029-2.331.024-3.5,0-.358-.006-.457.1-.455.456q.021,4.021,0,8.042c0,.357.095.463.454.457,1.166-.022,2.332-.027,3.5,0,.421.01.541-.111.532-.533C729.064,151.917,729.082,150.626,729.082,149.335Zm4.045-.149c0,1.34.016,2.681-.01,4.021-.009.42.109.543.531.533,1.165-.029,2.331-.024,3.5,0,.358.006.457-.1.455-.456q-.022-4.021,0-8.042c0-.357-.1-.463-.455-.457-1.165.022-2.332.027-3.5,0-.421-.01-.54.112-.531.533C733.144,146.6,733.127,147.9,733.127,149.186Zm17.707.172c0,1.257.023,2.514-.014,3.771-.011.394.149.51.727.5,1.593-.027,3.189-.022,4.783,0,.489.006.625-.092.623-.427q-.03-3.772,0-7.543c0-.335-.131-.435-.622-.429-1.594.021-3.19.026-4.783,0-.576-.01-.74.1-.728.5C750.857,146.936,750.834,148.147,750.834,149.358Z"/>
    <line id="Line_128" data-name="Line 128" x2="16.268" transform="translate(722.97 118.312)" fill="#020202" stroke="#000" stroke-miterlimit="10" stroke-width="2"/>
    <line id="Line_129" data-name="Line 129" x2="16.268" transform="translate(722.97 124.828)" fill="#020202" stroke="#000" stroke-miterlimit="10" stroke-width="2"/>
    <line id="Line_130" data-name="Line 130" x2="16.268" transform="translate(722.97 131.345)" fill="#020202" stroke="#000" stroke-miterlimit="10" stroke-width="2"/>
    <line id="Line_131" data-name="Line 131" x2="16.268" transform="translate(722.97 137.862)" fill="#020202" stroke="#000" stroke-miterlimit="10" stroke-width="2"/>
    <line id="Line_132" data-name="Line 132" x2="12.083" transform="translate(747.846 131.345)" fill="#020202" stroke="#000" stroke-miterlimit="10" stroke-width="2"/>
    <line id="Line_133" data-name="Line 133" x2="12.083" transform="translate(747.846 137.862)" fill="#020202" stroke="#000" stroke-miterlimit="10" stroke-width="2"/>
  </g>
</svg>
