<svg xmlns="http://www.w3.org/2000/svg" width="55.601" height="55.832" viewBox="0 0 55.601 55.832">
  <g id="shovel" transform="translate(-4.322 -2.086)">
    <line id="Line_112" data-name="Line 112" y1="26.241" x2="26.241" transform="translate(18.865 16.903)" fill="none" stroke="#000" stroke-linecap="round" stroke-linejoin="round" stroke-width="2"/>
    <path id="Path_3818" data-name="Path 3818" d="M45.1,16.9c-1.957-1.952-2.3-5.2-.7-8.1a16.476,16.476,0,0,1,2.749-3.689l2.031-2.031,9.741,9.741L56.9,14.851a15.793,15.793,0,0,1-3.836,2.812c-2.87,1.5-6.036,1.155-7.958-.761Z" fill="none" stroke="#000" stroke-linecap="round" stroke-linejoin="round" stroke-width="2"/>
    <path id="Path_3819" data-name="Path 3819" d="M48.88,20.441" fill="none" stroke="#000" stroke-linecap="round" stroke-linejoin="round" stroke-width="2"/>
    <line id="Line_113" data-name="Line 113" x1="9.529" y1="9.529" transform="translate(45.746 6.733)" fill="none" stroke="#000" stroke-linecap="round" stroke-linejoin="round" stroke-width="2"/>
    <path id="Path_3820" data-name="Path 3820" d="M29.237,45.228l-12.5-12.505-8.8,8.8A8.329,8.329,0,0,0,5.507,48.99l1.284,6.179,5.791,1.476a8.285,8.285,0,0,0,7.831-2.415Z" fill="none" stroke="#000" stroke-linecap="round" stroke-linejoin="round" stroke-width="2"/>
    <line id="Line_114" data-name="Line 114" x1="6.963" y2="6.963" transform="translate(12.911 35.859)" fill="none" stroke="#000" stroke-linecap="round" stroke-linejoin="round" stroke-width="2"/>
    <line id="Line_115" data-name="Line 115" x1="6.963" y2="6.963" transform="translate(19.055 42.002)" fill="none" stroke="#000" stroke-linecap="round" stroke-linejoin="round" stroke-width="2"/>
  </g>
</svg>
