<svg xmlns="http://www.w3.org/2000/svg" width="24" height="24" viewBox="0 0 24 24">
  <g id="Group_34999" data-name="Group 34999" transform="translate(-5435 873)">
    <circle id="Ellipse_469" data-name="Ellipse 469" cx="12" cy="12" r="12" transform="translate(5435 -873)" fill="none"/>
    <g id="Group_12768" data-name="Group 12768" transform="translate(5443 -867)">
      <g id="Group_12764" data-name="Group 12764" transform="translate(0)">
        <path id="Path_3773" data-name="Path 3773" d="M359.131,573.557l-5.752-7.774.784-.056c.159-.011,3.885-.31,3.885-3.381a1.921,1.921,0,0,0-.644-1.512,4.891,4.891,0,0,0-2.753-.947h-2l-.047-.86a11.665,11.665,0,0,1,2.085,0h7.076v.862h-4.186a3.336,3.336,0,0,1,.4.3,2.774,2.774,0,0,1,.932,2.154c0,2.67-2.272,3.8-3.939,4.138l4.853,6.559Z" transform="translate(-352.606 -558.981)" fill="#505050"/>
      </g>
      <g id="Group_12765" data-name="Group 12765" transform="translate(0.046 3.208)">
        <rect id="Rectangle_3396" data-name="Rectangle 3396" width="9.114" height="0.862" fill="#505050"/>
      </g>
    </g>
  </g>
</svg>
