<svg xmlns="http://www.w3.org/2000/svg" width="59.144" height="59.141" viewBox="0 0 59.144 59.141">
  <g id="Group_12771" data-name="Group 12771" transform="translate(-645.492 -194.134)">
    <path id="Path_3794" data-name="Path 3794" d="M704.024,251.342c-3.714.024-7.428,0-11.143.025-.448,0-.576-.106-.546-.551a17.57,17.57,0,0,0,0-1.906c-.015-.341.091-.467.427-.417a1.459,1.459,0,0,0,1.3-.561q3.684-3.73,7.393-7.438a8.161,8.161,0,0,0,.571-.607,2.959,2.959,0,0,0,0-3.784,2.925,2.925,0,0,0-3.713-.7c-.109.058-.191.21-.366.125,0-2.659.013-5.32,0-7.982a2.818,2.818,0,0,0-3.5-2.8c-.286.066-.427.064-.569-.263a2.827,2.827,0,0,0-5.215.013c-.121.276-.235.326-.519.261a2.757,2.757,0,0,0-3.3,1.657c-.1.227-.178.322-.464.263a2.821,2.821,0,0,0-3.59,2.921c-.005,3.039,0,6.078,0,9.117,0,.593.115,1.134-.663,1.526-.673.34-1.131,1.094-1.708,1.639a1.523,1.523,0,0,0-.5,1.213c.017,2.6,0,5.2.017,7.806,0,.365-.081.465-.455.46-1.588-.023-3.178-.026-4.766,0-.418.007-.523-.1-.519-.517.021-2.582.011-5.165.01-7.747,0-.256.058-.541-.118-.75a11.471,11.471,0,0,0-2.368-2.316.66.66,0,0,1-.378-.658q.009-4.886,0-9.772a2.828,2.828,0,0,0-3.589-2.927c-.225.045-.334.035-.45-.2a2.749,2.749,0,0,0-3.374-1.706c-.235.047-.345.017-.441-.214a2.83,2.83,0,0,0-5.262-.02c-.09.208-.162.291-.425.241a2.832,2.832,0,0,0-3.619,3c0,2.582,0,5.164,0,7.843a3.014,3.014,0,0,0-2.831-.408,2.973,2.973,0,0,0-.974,4.976c2.5,2.531,5.023,5.034,7.516,7.569a1.786,1.786,0,0,0,1.648.729c.282-.049.378.062.368.354-.021.655-.037,1.313,0,1.966.028.442-.094.555-.545.552-3.535-.021-7.071-.012-10.606-.012-1.255,0-1.225,0-1.268,1.25-.019.542.13.67.67.67q28.572-.022,57.145-.013c1.315,0,1.288,0,1.326-1.311C704.65,251.453,704.518,251.339,704.024,251.342ZM665.532,229.6c0-.886.715-1.386,1.405-1a1.022,1.022,0,0,1,.5,1c-.008,1.645,0,3.29,0,4.936s-.013,3.29.01,4.935c.005.373-.094.49-.46.45-.467-.05-1.084.193-1.369-.092s-.083-.9-.084-1.371Q665.523,234.027,665.532,229.6Zm-3.815-1.835c0-.681.257-1.068.764-1.177.625-.135,1.138.347,1.14,1.1.006,1.963,0,3.926,0,5.888s-.008,3.926.008,5.889c0,.349-.059.469-.445.468-1.47,0-1.47.017-1.47-1.458Q661.716,233.113,661.717,227.761Zm-3.495-2.851a.884.884,0,0,1,.993-.171.983.983,0,0,1,.6,1q-.006,3.123,0,6.247v.654c0,2.261-.008,4.522.007,6.782,0,.363-.056.506-.471.5-1.443-.011-1.443.008-1.443-1.426q0-6.306,0-12.612A1.157,1.157,0,0,1,658.222,224.91Zm-4.136,2.772a1.021,1.021,0,0,1,.511-1,.877.877,0,0,1,.957.039.956.956,0,0,1,.442.858q-.006,5.832-.009,11.665c0,.013-.023.026-.072.08a.584.584,0,0,1-.061-.046c-.583-.594-1.368-1.1-1.688-1.809a6,6,0,0,1-.076-2.291C654.088,232.681,654.092,230.181,654.086,227.682Zm16.236,16.847c-.081,2.1-.036,4.207-.015,6.311.005.4-.077.535-.508.527-1.588-.029-3.176-.012-4.764-.012-1.569,0-3.137-.014-4.7.01-.4.006-.562-.063-.531-.5a11.952,11.952,0,0,0,0-1.844c-.042-.486.154-.544.566-.531.932.029,1.866-.007,2.8.017.365.009.506-.061.5-.474-.009-1.441.01-1.441-1.433-1.441-1.469,0-2.938-.006-4.407.005a.852.852,0,0,1-.678-.272q-3.685-3.726-7.386-7.437a1.07,1.07,0,0,1,.271-1.879,1.092,1.092,0,0,1,1.225.371c1.315,1.324,2.64,2.637,3.946,3.971a1.489,1.489,0,0,0,1.155.481c4.03-.013,8.06,0,12.089-.016a1.3,1.3,0,0,1,.882.358A2.6,2.6,0,0,1,670.322,244.529Zm23.813-16.992a.963.963,0,0,1,.928-.97.942.942,0,0,1,.972.982c.016,1.448.006,2.9.006,4.345,0,1.726,0,3.452,0,5.178,0,.19.061.395-.108.562-.572.563-1.138,1.131-1.8,1.786v-11.7C694.134,227.656,694.131,227.6,694.135,227.537Zm-3.815,5.044V226.1c0-.119,0-.238,0-.357a.959.959,0,1,1,1.906-.029c0,.059,0,.119,0,.178,0,4.5-.005,9,.009,13.505,0,.395-.063.539-.5.533-1.414-.02-1.414,0-1.414-1.4Zm-3.5-5.762a.887.887,0,0,1,.993-.174.98.98,0,0,1,.6,1q-.006,2.944,0,5.888c0,1.943-.02,3.887.014,5.829.008.492-.155.572-.593.564-1.327-.025-1.328-.008-1.328-1.36q0-5.383,0-10.766A1.169,1.169,0,0,1,686.822,226.819Zm-4.13,7.675q0-2.407,0-4.816c0-.756.341-1.19.931-1.2.609-.014.974.438.975,1.221,0,3.231-.011,6.462.013,9.692,0,.465-.133.545-.559.537-1.36-.023-1.361,0-1.361-1.386Zm4.284,12.083c-.431-.007-.514.126-.509.529.017,1.389,0,1.389,1.365,1.389.714,0,1.429.016,2.143-.007.34-.011.5.041.474.44-.038.672-.021,1.349-.005,2.024.006.284-.037.413-.378.412q-4.942-.022-9.886,0c-.3,0-.354-.1-.353-.375q.013-3.752,0-7.5a.794.794,0,0,1,.206-.523,2.748,2.748,0,0,1,2.577-1.17c1.7.114,3.413.03,5.12.03,2.005,0,4.01-.012,6.014.008a1.546,1.546,0,0,0,1.208-.507c1.277-1.305,2.571-2.594,3.862-3.886.593-.594,1.186-.662,1.662-.2s.432,1.1-.172,1.713q-3.629,3.657-7.255,7.314a1.044,1.044,0,0,1-.834.333C690.469,246.58,688.722,246.6,686.976,246.577Z"/>
    <path id="Path_3795" data-name="Path 3795" d="M689.913,208.6q-7.014-7.011-14.027-14.023a.984.984,0,0,0-1.639,0q-7.016,7.009-14.027,14.024a.982.982,0,0,0-.329,1.168,1.009,1.009,0,0,0,1.062.6c1.033-.012,2.066.026,3.1-.017.47-.019.538.138.537.561-.017,4.17-.011,8.339-.01,12.509,0,.93.318,1.245,1.252,1.245h18.406c1.018,0,1.317-.295,1.317-1.3,0-4.11.016-8.22-.016-12.329-.005-.6.167-.713.717-.686.971.048,1.945.005,2.918.017a1.012,1.012,0,0,0,1.065-.592A.982.982,0,0,0,689.913,208.6Zm-12.345,14.161c-.834-.018-1.668-.006-2.5-.006s-1.669-.012-2.5.006c-.286.006-.369-.077-.365-.364.016-1.192-.016-2.384.015-3.575a2.854,2.854,0,0,1,5.7,0c.033,1.191,0,2.383.015,3.575C677.935,222.676,677.857,222.765,677.568,222.758Zm5.607,0c-.952-.032-1.906-.028-2.858,0-.376.01-.507-.075-.5-.479.032-1.071.016-2.143.01-3.215a4.768,4.768,0,1,0-9.532-.008c-.006,1.092-.015,2.184.006,3.275.007.336-.087.434-.425.427-1.012-.023-2.024-.018-3.036,0-.284,0-.367-.075-.366-.363q.013-6.164,0-12.327a.667.667,0,0,1,.243-.507q4.024-4.019,8.04-8.045c.234-.236.361-.253.6-.008q4.008,4.035,8.042,8.043a.858.858,0,0,1,.243.688c-.007,2.005,0,4.01,0,6.014s-.01,4.01.008,6.015C683.658,222.645,683.577,222.776,683.175,222.762Zm2.094-14.3c-.318.016-.456-.2-.632-.373q-4.257-4.25-8.509-8.5c-.9-.906-1.215-.908-2.1-.02q-4.19,4.189-8.373,8.388a1.416,1.416,0,0,1-1.236.509c-.4-.041-.816-.008-1.332-.008.154-.162.228-.242.3-.32q5.663-5.664,11.325-11.331c.209-.21.338-.378.647-.067q5.749,5.789,11.528,11.549a2.052,2.052,0,0,1,.12.169C686.372,208.45,685.819,208.429,685.269,208.458Z"/>
    <path id="Path_3796" data-name="Path 3796" d="M675.116,204.636a3.814,3.814,0,1,0,3.762,3.878A3.82,3.82,0,0,0,675.116,204.636Zm-.053,5.717a1.905,1.905,0,1,1,1.908-1.932A1.913,1.913,0,0,1,675.063,210.353Z"/>
  </g>
</svg>
