<svg xmlns="http://www.w3.org/2000/svg" width="59.956" height="38.417" viewBox="0 0 59.956 38.417">
  <g id="helmet" transform="translate(-1.902 -12.792)">
    <path id="Path_3830" data-name="Path 3830" d="M8.471,43.691a23.386,23.386,0,0,1,16.68-22.41" fill="none" stroke="#000" stroke-linecap="round" stroke-linejoin="round" stroke-width="2"/>
    <path id="Path_3831" data-name="Path 3831" d="M38.371,21.221a23.4,23.4,0,0,1,16.88,22.47" fill="none" stroke="#000" stroke-linecap="round" stroke-linejoin="round" stroke-width="2"/>
    <path id="Path_3832" data-name="Path 3832" d="M9.417,43.693H54.343a6.515,6.515,0,0,1,6.515,6.515H2.9A6.515,6.515,0,0,1,9.417,43.693Z" fill="none" stroke="#000" stroke-linecap="round" stroke-linejoin="round" stroke-width="2"/>
    <path id="Path_3833" data-name="Path 3833" d="M22.8,32l2.35-10.72,1.64-7.49h9.99l1.59,7.43L40.681,32" fill="none" stroke="#000" stroke-linecap="round" stroke-linejoin="round" stroke-width="2"/>
    <circle id="Ellipse_408" data-name="Ellipse 408" cx="6.42" cy="6.42" r="6.42" transform="translate(25.321 30.835)" fill="none" stroke="#000" stroke-linecap="round" stroke-linejoin="round" stroke-width="2"/>
    <circle id="Ellipse_409" data-name="Ellipse 409" cx="2.798" cy="2.798" r="2.798" transform="translate(28.943 34.457)" fill="none" stroke="#000" stroke-linecap="round" stroke-linejoin="round" stroke-width="2"/>
  </g>
</svg>
