<svg xmlns="http://www.w3.org/2000/svg" width="70" height="70" viewBox="0 0 70 70">
  <g id="Group_34999" data-name="Group 34999" transform="translate(-139 -11835)">
    <circle id="Ellipse_398" data-name="Ellipse 398" cx="35" cy="35" r="35" transform="translate(139 11835)" fill="#fff"/>
    <g id="grinder" transform="translate(147.785 11844.2)">
      <path id="Path_3835" data-name="Path 3835" d="M27.5,19.863l-8.705,8.7a3.446,3.446,0,0,0-.066,4.871l4.7,4.7a3.446,3.446,0,0,0,4.871-.066L36.92,29.44" transform="translate(-2.557 -3.071)" fill="none" stroke="#000" stroke-linecap="round" stroke-linejoin="round" stroke-width="2"/>
      <path id="Path_3836" data-name="Path 3836" d="M16.872,36.021l-3.613,3.613a4.3,4.3,0,0,0,.144,6.072h0a4.3,4.3,0,0,0,6.072.145l3.613-3.613" transform="translate(-1.398 -6.364)" fill="none" stroke="#000" stroke-linecap="round" stroke-linejoin="round" stroke-width="2"/>
      <path id="Path_3837" data-name="Path 3837" d="M50.16,20.443c3.761-3.761,3.972-9.649.471-13.149S41.242,4,37.481,7.765" transform="translate(-6.577 0)" fill="none" stroke="#000" stroke-linecap="round" stroke-linejoin="round" stroke-width="2"/>
      <path id="Path_3838" data-name="Path 3838" d="M38.31,10.367,33.794,5.851c-5.024,5.024-5.306,12.888-.629,17.564s12.54,4.394,17.563-.63L46.213,18.27" transform="translate(-5.018 -0.214)" fill="none" stroke="#000" stroke-linecap="round" stroke-linejoin="round" stroke-width="2"/>
      <path id="Path_3839" data-name="Path 3839" d="M47.91,19.426a5.808,5.808,0,0,1-8.2.294,5.807,5.807,0,0,1,.294-8.2" transform="translate(-6.715 -1.371)" fill="none" stroke="#000" stroke-linecap="round" stroke-linejoin="round" stroke-width="2"/>
      <line id="Line_134" data-name="Line 134" y1="5.955" x2="5.955" transform="translate(20.844 29.071)" fill="none" stroke="#000" stroke-linecap="round" stroke-linejoin="round" stroke-width="2"/>
      <line id="Line_135" data-name="Line 135" y1="5.955" x2="5.955" transform="translate(16.32 24.548)" fill="none" stroke="#000" stroke-linecap="round" stroke-linejoin="round" stroke-width="2"/>
      <line id="Line_136" data-name="Line 136" y1="4.041" x2="4.041" transform="translate(18.582 28.724)" fill="none" stroke="#000" stroke-linecap="round" stroke-linejoin="round" stroke-width="2"/>
      <line id="Line_137" data-name="Line 137" x1="4.159" y1="4.159" transform="translate(17.968 15.451)" fill="none" stroke="#000" stroke-linecap="round" stroke-linejoin="round" stroke-width="2"/>
      <line id="Line_138" data-name="Line 138" x1="4.158" y1="4.158" transform="translate(15.493 17.927)" fill="none" stroke="#000" stroke-linecap="round" stroke-linejoin="round" stroke-width="2"/>
      <line id="Line_139" data-name="Line 139" x1="5.658" y2="5.658" transform="translate(13.921 13.841)" fill="none" stroke="#000" stroke-linecap="round" stroke-linejoin="round" stroke-width="2"/>
      <path id="Path_3840" data-name="Path 3840" d="M12.12,48.34s-14.212,5.025-1.858,7.5c9.216,1.846,8.962-.009,8.237-1.071a1.984,1.984,0,0,1,.3-2.671c.924-.861,2.846-1.4,6.841-.126l7.99,2.553" transform="translate(0 -8.875)" fill="none" stroke="#000" stroke-linecap="round" stroke-linejoin="round" stroke-width="2"/>
      <circle id="Ellipse_410" data-name="Ellipse 410" cx="1.322" cy="1.322" r="1.322" transform="translate(36.326 12.383)" fill="none" stroke="#000" stroke-linecap="round" stroke-linejoin="round" stroke-width="2"/>
    </g>
  </g>
</svg>
