<svg xmlns="http://www.w3.org/2000/svg" width="70" height="70" viewBox="0 0 70 70">
  <g id="Group_34995" data-name="Group 34995" transform="translate(-139 -11691)">
    <circle id="Ellipse_396" data-name="Ellipse 396" cx="35" cy="35" r="35" transform="translate(139 11691)" fill="#fff"/>
    <path id="blueprints" d="M1,29.826a5.478,5.478,0,0,1,5.478-5.478M1,29.826A5.478,5.478,0,0,0,6.478,35.3m5.478-5.478a5.478,5.478,0,0,0-5.478-5.478m0,10.957a5.478,5.478,0,0,0,5.478-5.478m0-20.348A5.478,5.478,0,0,0,6.478,4m0,0A5.478,5.478,0,0,0,1,9.478m36,0A5.478,5.478,0,0,0,31.522,4V9.478m0,0v5.478m0,20.348A5.478,5.478,0,0,0,37,29.826m-5.478-14.87v9.391A5.478,5.478,0,0,1,37,29.826M6.478,35.3H31.522m0-25.826H11.957m0,20.348V9.478M1,9.478V29.826m36,0V9.478" transform="translate(155 11706.348)" fill="none" stroke="#1d1d1d" stroke-linejoin="round" stroke-width="2"/>
  </g>
</svg>
