<svg xmlns="http://www.w3.org/2000/svg" width="70" height="70" viewBox="0 0 70 70">
  <g id="Group_35001" data-name="Group 35001" transform="translate(-691 -11835)">
    <circle id="Ellipse_399" data-name="Ellipse 399" cx="35" cy="35" r="35" transform="translate(691 11835)" fill="#fff"/>
    <path id="tools" d="M7.72,37.633l8.27-8.27m3.181-.636,1.618-1.619m-2.544-2.544-1.619,1.618m9.252-4.162L33.8,14.1l2.544-1.272,1.528-2.138L39.528,8.37,36.983,5.826,32.53,9.007l-1.272,2.544-7.925,7.924m-6.707,6.707,2.545,2.545m-2.545-2.545L15.354,24.91,5.175,35.089a3.6,3.6,0,0,0,5.089,5.089L20.443,30l-1.272-1.272m-.927-4.163,2.544,2.544m2.544-7.634-4.741-4.742a9.049,9.049,0,0,0,.526-4.592A8.989,8.989,0,0,0,6.936,3.079L8.431,4.572,11.89,8.032v5.036H6.747l-4.9-4.9A8.99,8.99,0,0,0,13.5,19.823l4.742,4.742m5.089-5.089,2.545,2.545m-5.089,5.089,9.05,9.05a5.4,5.4,0,1,0,5.089-5.089L25.878,22.02M33.95,37.726a1.8,1.8,0,1,0,0-2.545A1.8,1.8,0,0,0,33.95,37.726Z" transform="translate(705.273 11848.041)" fill="none" stroke="#000" stroke-linejoin="round" stroke-width="2"/>
  </g>
</svg>
